<mxfile host="Electron" modified="2024-04-12T16:08:44.129Z" agent="Mozilla/5.0 (Windows NT 10.0; Win64; x64) AppleWebKit/537.36 (KHTML, like Gecko) draw.io/21.4.0 Chrome/112.0.5615.204 Electron/24.5.1 Safari/537.36" etag="3Rk8pnzG5JCGmpMAO42s" version="21.4.0" type="device">
  <diagram name="Page-1" id="rCsgQdEcJ6JSE4IAMrht">
    <mxGraphModel dx="5923" dy="5398" grid="1" gridSize="10" guides="1" tooltips="1" connect="1" arrows="1" fold="1" page="1" pageScale="1" pageWidth="1169" pageHeight="1654" math="0" shadow="0">
      <root>
        <mxCell id="0" />
        <mxCell id="1" parent="0" />
        <mxCell id="q92lbC2dsx9e7F62Pgex-7" style="edgeStyle=orthogonalEdgeStyle;rounded=0;orthogonalLoop=1;jettySize=auto;html=1;entryX=0.5;entryY=0;entryDx=0;entryDy=0;exitX=0;exitY=0.5;exitDx=0;exitDy=0;endArrow=none;endFill=0;startArrow=diamondThin;startFill=0;endSize=20;startSize=20;fontSize=13;" parent="1" source="q92lbC2dsx9e7F62Pgex-14" target="q92lbC2dsx9e7F62Pgex-24" edge="1">
          <mxGeometry relative="1" as="geometry">
            <mxPoint x="-1980.2" y="-1060" as="targetPoint" />
          </mxGeometry>
        </mxCell>
        <mxCell id="q92lbC2dsx9e7F62Pgex-8" style="edgeStyle=orthogonalEdgeStyle;rounded=0;orthogonalLoop=1;jettySize=auto;html=1;entryX=0.465;entryY=-0.001;entryDx=0;entryDy=0;entryPerimeter=0;exitX=1;exitY=0.5;exitDx=0;exitDy=0;endArrow=none;endFill=0;endSize=14;startArrow=diamondThin;startFill=1;startSize=20;fontSize=13;" parent="1" source="q92lbC2dsx9e7F62Pgex-11" target="q92lbC2dsx9e7F62Pgex-20" edge="1">
          <mxGeometry relative="1" as="geometry">
            <Array as="points">
              <mxPoint x="-1480" y="-1581" />
              <mxPoint x="-1480" y="-1350" />
              <mxPoint x="-1012" y="-1350" />
            </Array>
          </mxGeometry>
        </mxCell>
        <mxCell id="q92lbC2dsx9e7F62Pgex-10" value="&lt;b style=&quot;border-color: var(--border-color); font-size: 13px;&quot;&gt;CocaColaFactory&lt;br style=&quot;font-size: 13px;&quot;&gt;&lt;br style=&quot;font-size: 13px;&quot;&gt;&lt;/b&gt;" style="swimlane;fontStyle=1;align=center;verticalAlign=top;childLayout=stackLayout;horizontal=1;startSize=26;horizontalStack=0;resizeParent=1;resizeParentMax=0;resizeLast=0;collapsible=1;marginBottom=0;whiteSpace=wrap;html=1;fontSize=13;fillColor=#d5e8d4;strokeColor=#82b366;" parent="1" vertex="1">
          <mxGeometry x="-1960" y="-1870" width="430" height="658" as="geometry" />
        </mxCell>
        <mxCell id="q92lbC2dsx9e7F62Pgex-11" value="+ employees: Employee**&lt;div style=&quot;font-size: 13px;&quot;&gt;&lt;br style=&quot;font-size: 13px;&quot;&gt;&lt;/div&gt;" style="text;strokeColor=none;fillColor=none;align=left;verticalAlign=top;spacingLeft=4;spacingRight=4;overflow=hidden;rotatable=0;points=[[0,0.5],[1,0.5]];portConstraint=eastwest;whiteSpace=wrap;html=1;fontSize=13;" parent="q92lbC2dsx9e7F62Pgex-10" vertex="1">
          <mxGeometry y="26" width="430" height="26" as="geometry" />
        </mxCell>
        <mxCell id="8-N4795P8bHpSPom3xNv-1" value="+ employeesCount : int" style="text;align=left;verticalAlign=top;spacingLeft=4;spacingRight=4;overflow=hidden;rotatable=0;points=[[0,0.5],[1,0.5]];portConstraint=eastwest;whiteSpace=wrap;html=1;fontSize=13;" parent="q92lbC2dsx9e7F62Pgex-10" vertex="1">
          <mxGeometry y="52" width="430" height="26" as="geometry" />
        </mxCell>
        <mxCell id="q92lbC2dsx9e7F62Pgex-14" value="+ trucks: Truck*&lt;div style=&quot;font-size: 13px;&quot;&gt;&lt;br style=&quot;font-size: 13px;&quot;&gt;&lt;/div&gt;" style="text;strokeColor=none;fillColor=none;align=left;verticalAlign=top;spacingLeft=4;spacingRight=4;overflow=hidden;rotatable=0;points=[[0,0.5],[1,0.5]];portConstraint=eastwest;whiteSpace=wrap;html=1;fontSize=13;" parent="q92lbC2dsx9e7F62Pgex-10" vertex="1">
          <mxGeometry y="78" width="430" height="26" as="geometry" />
        </mxCell>
        <mxCell id="8-N4795P8bHpSPom3xNv-3" value="+ trucksCount : int" style="text;align=left;verticalAlign=top;spacingLeft=4;spacingRight=4;overflow=hidden;rotatable=0;points=[[0,0.5],[1,0.5]];portConstraint=eastwest;whiteSpace=wrap;html=1;fontSize=13;" parent="q92lbC2dsx9e7F62Pgex-10" vertex="1">
          <mxGeometry y="104" width="430" height="26" as="geometry" />
        </mxCell>
        <mxCell id="q92lbC2dsx9e7F62Pgex-62" value="+ tours: CocaColaTour**&lt;div style=&quot;font-size: 13px;&quot;&gt;&lt;br style=&quot;font-size: 13px;&quot;&gt;&lt;/div&gt;" style="text;strokeColor=none;fillColor=none;align=left;verticalAlign=top;spacingLeft=4;spacingRight=4;overflow=hidden;rotatable=0;points=[[0,0.5],[1,0.5]];portConstraint=eastwest;whiteSpace=wrap;html=1;fontSize=13;" parent="q92lbC2dsx9e7F62Pgex-10" vertex="1">
          <mxGeometry y="130" width="430" height="26" as="geometry" />
        </mxCell>
        <mxCell id="8-N4795P8bHpSPom3xNv-4" value="+ toursCount: int" style="text;align=left;verticalAlign=top;spacingLeft=4;spacingRight=4;overflow=hidden;rotatable=0;points=[[0,0.5],[1,0.5]];portConstraint=eastwest;whiteSpace=wrap;html=1;fontSize=13;" parent="q92lbC2dsx9e7F62Pgex-10" vertex="1">
          <mxGeometry y="156" width="430" height="26" as="geometry" />
        </mxCell>
        <mxCell id="q92lbC2dsx9e7F62Pgex-65" value="+ suppliers: Suppliers**&lt;div style=&quot;font-size: 13px;&quot;&gt;&lt;br style=&quot;font-size: 13px;&quot;&gt;&lt;/div&gt;" style="text;strokeColor=none;fillColor=none;align=left;verticalAlign=top;spacingLeft=4;spacingRight=4;overflow=hidden;rotatable=0;points=[[0,0.5],[1,0.5]];portConstraint=eastwest;whiteSpace=wrap;html=1;fontSize=13;" parent="q92lbC2dsx9e7F62Pgex-10" vertex="1">
          <mxGeometry y="182" width="430" height="26" as="geometry" />
        </mxCell>
        <mxCell id="8-N4795P8bHpSPom3xNv-5" value="+ suppliersCount: int" style="text;align=left;verticalAlign=top;spacingLeft=4;spacingRight=4;overflow=hidden;rotatable=0;points=[[0,0.5],[1,0.5]];portConstraint=eastwest;whiteSpace=wrap;html=1;fontSize=13;" parent="q92lbC2dsx9e7F62Pgex-10" vertex="1">
          <mxGeometry y="208" width="430" height="26" as="geometry" />
        </mxCell>
        <mxCell id="q92lbC2dsx9e7F62Pgex-122" value="+ allEvents: LIST&amp;nbsp;" style="text;strokeColor=none;fillColor=none;align=left;verticalAlign=top;spacingLeft=4;spacingRight=4;overflow=hidden;rotatable=0;points=[[0,0.5],[1,0.5]];portConstraint=eastwest;whiteSpace=wrap;html=1;fontSize=13;" parent="q92lbC2dsx9e7F62Pgex-10" vertex="1">
          <mxGeometry y="234" width="430" height="26" as="geometry" />
        </mxCell>
        <mxCell id="HJTjHNm4ioIv6pA46BGL-1" value="+ sortTour: eTourSort" style="text;strokeColor=none;fillColor=none;align=left;verticalAlign=top;spacingLeft=4;spacingRight=4;overflow=hidden;rotatable=0;points=[[0,0.5],[1,0.5]];portConstraint=eastwest;whiteSpace=wrap;html=1;fontSize=13;" parent="q92lbC2dsx9e7F62Pgex-10" vertex="1">
          <mxGeometry y="260" width="430" height="26" as="geometry" />
        </mxCell>
        <mxCell id="8-N4795P8bHpSPom3xNv-6" value="+ seed: unsigned" style="text;align=left;verticalAlign=top;spacingLeft=4;spacingRight=4;overflow=hidden;rotatable=0;points=[[0,0.5],[1,0.5]];portConstraint=eastwest;whiteSpace=wrap;html=1;fontSize=13;" parent="q92lbC2dsx9e7F62Pgex-10" vertex="1">
          <mxGeometry y="286" width="430" height="26" as="geometry" />
        </mxCell>
        <mxCell id="q92lbC2dsx9e7F62Pgex-12" value="" style="line;strokeWidth=1;fillColor=none;align=left;verticalAlign=middle;spacingTop=-1;spacingLeft=3;spacingRight=3;rotatable=0;labelPosition=right;points=[];portConstraint=eastwest;strokeColor=inherit;fontSize=13;" parent="q92lbC2dsx9e7F62Pgex-10" vertex="1">
          <mxGeometry y="312" width="430" height="8" as="geometry" />
        </mxCell>
        <mxCell id="q92lbC2dsx9e7F62Pgex-139" value="+ initFactory(CocaColaFactory*) : int" style="text;strokeColor=none;fillColor=none;align=left;verticalAlign=top;spacingLeft=4;spacingRight=4;overflow=hidden;rotatable=0;points=[[0,0.5],[1,0.5]];portConstraint=eastwest;whiteSpace=wrap;html=1;fontSize=13;" parent="q92lbC2dsx9e7F62Pgex-10" vertex="1">
          <mxGeometry y="320" width="430" height="26" as="geometry" />
        </mxCell>
        <mxCell id="8-N4795P8bHpSPom3xNv-7" value="+ addEmployee(CocaColaFactory*) : int" style="text;strokeColor=none;fillColor=none;align=left;verticalAlign=top;spacingLeft=4;spacingRight=4;overflow=hidden;rotatable=0;points=[[0,0.5],[1,0.5]];portConstraint=eastwest;whiteSpace=wrap;html=1;fontSize=13;" parent="q92lbC2dsx9e7F62Pgex-10" vertex="1">
          <mxGeometry y="346" width="430" height="26" as="geometry" />
        </mxCell>
        <mxCell id="8-N4795P8bHpSPom3xNv-8" value="+ addEventToFactory(CocaColaFactory*) : int" style="text;strokeColor=none;fillColor=none;align=left;verticalAlign=top;spacingLeft=4;spacingRight=4;overflow=hidden;rotatable=0;points=[[0,0.5],[1,0.5]];portConstraint=eastwest;whiteSpace=wrap;html=1;fontSize=13;" parent="q92lbC2dsx9e7F62Pgex-10" vertex="1">
          <mxGeometry y="372" width="430" height="26" as="geometry" />
        </mxCell>
        <mxCell id="8-N4795P8bHpSPom3xNv-9" value="+ addSupplier(CocaColaFactory*) : int" style="text;strokeColor=none;fillColor=none;align=left;verticalAlign=top;spacingLeft=4;spacingRight=4;overflow=hidden;rotatable=0;points=[[0,0.5],[1,0.5]];portConstraint=eastwest;whiteSpace=wrap;html=1;fontSize=13;" parent="q92lbC2dsx9e7F62Pgex-10" vertex="1">
          <mxGeometry y="398" width="430" height="26" as="geometry" />
        </mxCell>
        <mxCell id="8-N4795P8bHpSPom3xNv-10" value="+ addTruck(CocaColaFactory*) : int" style="text;strokeColor=none;fillColor=none;align=left;verticalAlign=top;spacingLeft=4;spacingRight=4;overflow=hidden;rotatable=0;points=[[0,0.5],[1,0.5]];portConstraint=eastwest;whiteSpace=wrap;html=1;fontSize=13;" parent="q92lbC2dsx9e7F62Pgex-10" vertex="1">
          <mxGeometry y="424" width="430" height="26" as="geometry" />
        </mxCell>
        <mxCell id="8-N4795P8bHpSPom3xNv-12" value="+ addPackToTruck(CocaColaFactory*) : int" style="text;strokeColor=none;fillColor=none;align=left;verticalAlign=top;spacingLeft=4;spacingRight=4;overflow=hidden;rotatable=0;points=[[0,0.5],[1,0.5]];portConstraint=eastwest;whiteSpace=wrap;html=1;fontSize=13;" parent="q92lbC2dsx9e7F62Pgex-10" vertex="1">
          <mxGeometry y="450" width="430" height="26" as="geometry" />
        </mxCell>
        <mxCell id="8-N4795P8bHpSPom3xNv-13" value="+ doPrintTruckContent(CocaColaFactory*) : int" style="text;strokeColor=none;fillColor=none;align=left;verticalAlign=top;spacingLeft=4;spacingRight=4;overflow=hidden;rotatable=0;points=[[0,0.5],[1,0.5]];portConstraint=eastwest;whiteSpace=wrap;html=1;fontSize=13;" parent="q92lbC2dsx9e7F62Pgex-10" vertex="1">
          <mxGeometry y="476" width="430" height="26" as="geometry" />
        </mxCell>
        <mxCell id="8-N4795P8bHpSPom3xNv-17" value="+ printFactory(const CocaColaFactory*): void" style="text;strokeColor=none;fillColor=none;align=left;verticalAlign=top;spacingLeft=4;spacingRight=4;overflow=hidden;rotatable=0;points=[[0,0.5],[1,0.5]];portConstraint=eastwest;whiteSpace=wrap;html=1;fontSize=13;" parent="q92lbC2dsx9e7F62Pgex-10" vertex="1">
          <mxGeometry y="502" width="430" height="26" as="geometry" />
        </mxCell>
        <mxCell id="8-N4795P8bHpSPom3xNv-18" value="+ addTour(CocaColaFactory*): int" style="text;strokeColor=none;fillColor=none;align=left;verticalAlign=top;spacingLeft=4;spacingRight=4;overflow=hidden;rotatable=0;points=[[0,0.5],[1,0.5]];portConstraint=eastwest;whiteSpace=wrap;html=1;fontSize=13;" parent="q92lbC2dsx9e7F62Pgex-10" vertex="1">
          <mxGeometry y="528" width="430" height="26" as="geometry" />
        </mxCell>
        <mxCell id="8-N4795P8bHpSPom3xNv-19" value="+ enterTour(CocaColaFactory*): void" style="text;strokeColor=none;fillColor=none;align=left;verticalAlign=top;spacingLeft=4;spacingRight=4;overflow=hidden;rotatable=0;points=[[0,0.5],[1,0.5]];portConstraint=eastwest;whiteSpace=wrap;html=1;fontSize=13;" parent="q92lbC2dsx9e7F62Pgex-10" vertex="1">
          <mxGeometry y="554" width="430" height="26" as="geometry" />
        </mxCell>
        <mxCell id="8-N4795P8bHpSPom3xNv-20" value="+ sortTours(CocaColaFactory*): void" style="text;strokeColor=none;fillColor=none;align=left;verticalAlign=top;spacingLeft=4;spacingRight=4;overflow=hidden;rotatable=0;points=[[0,0.5],[1,0.5]];portConstraint=eastwest;whiteSpace=wrap;html=1;fontSize=13;" parent="q92lbC2dsx9e7F62Pgex-10" vertex="1">
          <mxGeometry y="580" width="430" height="26" as="geometry" />
        </mxCell>
        <mxCell id="8-N4795P8bHpSPom3xNv-21" value="+ findTour(CocaColaFactory*): void" style="text;strokeColor=none;fillColor=none;align=left;verticalAlign=top;spacingLeft=4;spacingRight=4;overflow=hidden;rotatable=0;points=[[0,0.5],[1,0.5]];portConstraint=eastwest;whiteSpace=wrap;html=1;fontSize=13;" parent="q92lbC2dsx9e7F62Pgex-10" vertex="1">
          <mxGeometry y="606" width="430" height="26" as="geometry" />
        </mxCell>
        <mxCell id="8-N4795P8bHpSPom3xNv-22" value="+ freeFactory(CocaColaFactory*): void" style="text;strokeColor=none;fillColor=none;align=left;verticalAlign=top;spacingLeft=4;spacingRight=4;overflow=hidden;rotatable=0;points=[[0,0.5],[1,0.5]];portConstraint=eastwest;whiteSpace=wrap;html=1;fontSize=13;" parent="q92lbC2dsx9e7F62Pgex-10" vertex="1">
          <mxGeometry y="632" width="430" height="26" as="geometry" />
        </mxCell>
        <mxCell id="q92lbC2dsx9e7F62Pgex-20" value="&lt;b style=&quot;border-color: var(--border-color); font-size: 13px;&quot;&gt;Employee (Abstract)&lt;br style=&quot;font-size: 13px;&quot;&gt;&lt;br style=&quot;font-size: 13px;&quot;&gt;&lt;/b&gt;" style="swimlane;fontStyle=1;align=center;verticalAlign=top;childLayout=stackLayout;horizontal=1;startSize=26;horizontalStack=0;resizeParent=1;resizeParentMax=0;resizeLast=0;collapsible=1;marginBottom=0;whiteSpace=wrap;html=1;fontSize=13;" parent="1" vertex="1">
          <mxGeometry x="-1110" y="-1330" width="540" height="372" as="geometry" />
        </mxCell>
        <mxCell id="Qn0OpZdaU_wwA8IJ9mMy-1" value="+ id: int" style="text;strokeColor=none;fillColor=none;align=left;verticalAlign=top;spacingLeft=4;spacingRight=4;overflow=hidden;rotatable=0;points=[[0,0.5],[1,0.5]];portConstraint=eastwest;whiteSpace=wrap;html=1;fontSize=13;" parent="q92lbC2dsx9e7F62Pgex-20" vertex="1">
          <mxGeometry y="26" width="540" height="26" as="geometry" />
        </mxCell>
        <mxCell id="q92lbC2dsx9e7F62Pgex-140" value="+ name: char*" style="text;strokeColor=none;fillColor=none;align=left;verticalAlign=top;spacingLeft=4;spacingRight=4;overflow=hidden;rotatable=0;points=[[0,0.5],[1,0.5]];portConstraint=eastwest;whiteSpace=wrap;html=1;fontSize=13;" parent="q92lbC2dsx9e7F62Pgex-20" vertex="1">
          <mxGeometry y="52" width="540" height="26" as="geometry" />
        </mxCell>
        <mxCell id="q92lbC2dsx9e7F62Pgex-21" value="+ age: int" style="text;strokeColor=none;fillColor=none;align=left;verticalAlign=top;spacingLeft=4;spacingRight=4;overflow=hidden;rotatable=0;points=[[0,0.5],[1,0.5]];portConstraint=eastwest;whiteSpace=wrap;html=1;fontSize=13;" parent="q92lbC2dsx9e7F62Pgex-20" vertex="1">
          <mxGeometry y="78" width="540" height="26" as="geometry" />
        </mxCell>
        <mxCell id="OBeASC8JN5czfZ92_RCb-54" value="+ pDerivedObj: void*" style="text;strokeColor=none;fillColor=none;align=left;verticalAlign=top;spacingLeft=4;spacingRight=4;overflow=hidden;rotatable=0;points=[[0,0.5],[1,0.5]];portConstraint=eastwest;whiteSpace=wrap;html=1;fontSize=13;" vertex="1" parent="q92lbC2dsx9e7F62Pgex-20">
          <mxGeometry y="104" width="540" height="26" as="geometry" />
        </mxCell>
        <mxCell id="Qn0OpZdaU_wwA8IJ9mMy-6" value="+ senyority: int" style="text;strokeColor=none;fillColor=none;align=left;verticalAlign=top;spacingLeft=4;spacingRight=4;overflow=hidden;rotatable=0;points=[[0,0.5],[1,0.5]];portConstraint=eastwest;whiteSpace=wrap;html=1;fontSize=13;" parent="q92lbC2dsx9e7F62Pgex-20" vertex="1">
          <mxGeometry y="130" width="540" height="26" as="geometry" />
        </mxCell>
        <mxCell id="OBeASC8JN5czfZ92_RCb-55" value="+ type: eEmployeeType" style="text;strokeColor=none;fillColor=none;align=left;verticalAlign=top;spacingLeft=4;spacingRight=4;overflow=hidden;rotatable=0;points=[[0,0.5],[1,0.5]];portConstraint=eastwest;whiteSpace=wrap;html=1;fontSize=13;" vertex="1" parent="q92lbC2dsx9e7F62Pgex-20">
          <mxGeometry y="156" width="540" height="26" as="geometry" />
        </mxCell>
        <mxCell id="OBeASC8JN5czfZ92_RCb-58" value="+ print: fptrPrintEmployee" style="text;strokeColor=none;fillColor=none;align=left;verticalAlign=top;spacingLeft=4;spacingRight=4;overflow=hidden;rotatable=0;points=[[0,0.5],[1,0.5]];portConstraint=eastwest;whiteSpace=wrap;html=1;fontSize=13;" vertex="1" parent="q92lbC2dsx9e7F62Pgex-20">
          <mxGeometry y="182" width="540" height="26" as="geometry" />
        </mxCell>
        <mxCell id="OBeASC8JN5czfZ92_RCb-59" value="+ delete: fptrFree" style="text;strokeColor=none;fillColor=none;align=left;verticalAlign=top;spacingLeft=4;spacingRight=4;overflow=hidden;rotatable=0;points=[[0,0.5],[1,0.5]];portConstraint=eastwest;whiteSpace=wrap;html=1;fontSize=13;" vertex="1" parent="q92lbC2dsx9e7F62Pgex-20">
          <mxGeometry y="208" width="540" height="26" as="geometry" />
        </mxCell>
        <mxCell id="OBeASC8JN5czfZ92_RCb-60" value="+ writeBFile: fptrWriteBFile" style="text;strokeColor=none;fillColor=none;align=left;verticalAlign=top;spacingLeft=4;spacingRight=4;overflow=hidden;rotatable=0;points=[[0,0.5],[1,0.5]];portConstraint=eastwest;whiteSpace=wrap;html=1;fontSize=13;" vertex="1" parent="q92lbC2dsx9e7F62Pgex-20">
          <mxGeometry y="234" width="540" height="26" as="geometry" />
        </mxCell>
        <mxCell id="OBeASC8JN5czfZ92_RCb-61" value="+ writeTFile: fptrWriteTFile" style="text;strokeColor=none;fillColor=none;align=left;verticalAlign=top;spacingLeft=4;spacingRight=4;overflow=hidden;rotatable=0;points=[[0,0.5],[1,0.5]];portConstraint=eastwest;whiteSpace=wrap;html=1;fontSize=13;" vertex="1" parent="q92lbC2dsx9e7F62Pgex-20">
          <mxGeometry y="260" width="540" height="26" as="geometry" />
        </mxCell>
        <mxCell id="q92lbC2dsx9e7F62Pgex-22" value="" style="line;strokeWidth=1;fillColor=none;align=left;verticalAlign=middle;spacingTop=-1;spacingLeft=3;spacingRight=3;rotatable=0;labelPosition=right;points=[];portConstraint=eastwest;strokeColor=inherit;fontSize=13;" parent="q92lbC2dsx9e7F62Pgex-20" vertex="1">
          <mxGeometry y="286" width="540" height="8" as="geometry" />
        </mxCell>
        <mxCell id="q92lbC2dsx9e7F62Pgex-23" value="+ newEmployee(const char*, const int,const int, const eEmployeeType, int): Employee*" style="text;strokeColor=none;fillColor=none;align=left;verticalAlign=top;spacingLeft=4;spacingRight=4;overflow=hidden;rotatable=0;points=[[0,0.5],[1,0.5]];portConstraint=eastwest;whiteSpace=wrap;html=1;fontSize=13;" parent="q92lbC2dsx9e7F62Pgex-20" vertex="1">
          <mxGeometry y="294" width="540" height="26" as="geometry" />
        </mxCell>
        <mxCell id="q92lbC2dsx9e7F62Pgex-103" value="+ printEmployee(Employee* const): void" style="text;strokeColor=none;fillColor=none;align=left;verticalAlign=top;spacingLeft=4;spacingRight=4;overflow=hidden;rotatable=0;points=[[0,0.5],[1,0.5]];portConstraint=eastwest;whiteSpace=wrap;html=1;fontSize=13;" parent="q92lbC2dsx9e7F62Pgex-20" vertex="1">
          <mxGeometry y="320" width="540" height="26" as="geometry" />
        </mxCell>
        <mxCell id="q92lbC2dsx9e7F62Pgex-104" value="+ freeEmployee(Employee* const):&amp;nbsp;void" style="text;strokeColor=none;fillColor=none;align=left;verticalAlign=top;spacingLeft=4;spacingRight=4;overflow=hidden;rotatable=0;points=[[0,0.5],[1,0.5]];portConstraint=eastwest;whiteSpace=wrap;html=1;fontSize=13;" parent="q92lbC2dsx9e7F62Pgex-20" vertex="1">
          <mxGeometry y="346" width="540" height="26" as="geometry" />
        </mxCell>
        <mxCell id="q92lbC2dsx9e7F62Pgex-24" value="&lt;b style=&quot;border-color: var(--border-color); font-size: 13px;&quot;&gt;Truck&lt;br style=&quot;font-size: 13px;&quot;&gt;&lt;br style=&quot;font-size: 13px;&quot;&gt;&lt;/b&gt;" style="swimlane;fontStyle=1;align=center;verticalAlign=top;childLayout=stackLayout;horizontal=1;startSize=26;horizontalStack=0;resizeParent=1;resizeParentMax=0;resizeLast=0;collapsible=1;marginBottom=0;whiteSpace=wrap;html=1;fontSize=13;" parent="1" vertex="1">
          <mxGeometry x="-2250.2" y="-1060" width="250" height="242" as="geometry" />
        </mxCell>
        <mxCell id="q92lbC2dsx9e7F62Pgex-63" value="+ destSupplier: Supplier*" style="text;strokeColor=none;fillColor=none;align=left;verticalAlign=top;spacingLeft=4;spacingRight=4;overflow=hidden;rotatable=0;points=[[0,0.5],[1,0.5]];portConstraint=eastwest;whiteSpace=wrap;html=1;fontSize=13;" parent="q92lbC2dsx9e7F62Pgex-24" vertex="1">
          <mxGeometry y="26" width="250" height="26" as="geometry" />
        </mxCell>
        <mxCell id="q92lbC2dsx9e7F62Pgex-69" value="+ packs[MAX]&amp;nbsp;: BottlePacking&amp;nbsp;" style="text;strokeColor=none;fillColor=none;align=left;verticalAlign=top;spacingLeft=4;spacingRight=4;overflow=hidden;rotatable=0;points=[[0,0.5],[1,0.5]];portConstraint=eastwest;whiteSpace=wrap;html=1;fontSize=13;" parent="q92lbC2dsx9e7F62Pgex-24" vertex="1">
          <mxGeometry y="52" width="250" height="26" as="geometry" />
        </mxCell>
        <mxCell id="q92lbC2dsx9e7F62Pgex-70" value="+ truckLicenseCode: char[LEN+1]" style="text;strokeColor=none;fillColor=none;align=left;verticalAlign=top;spacingLeft=4;spacingRight=4;overflow=hidden;rotatable=0;points=[[0,0.5],[1,0.5]];portConstraint=eastwest;whiteSpace=wrap;html=1;fontSize=13;" parent="q92lbC2dsx9e7F62Pgex-24" vertex="1">
          <mxGeometry y="78" width="250" height="26" as="geometry" />
        </mxCell>
        <mxCell id="q92lbC2dsx9e7F62Pgex-25" value="+ driver: Employee*" style="text;strokeColor=none;fillColor=none;align=left;verticalAlign=top;spacingLeft=4;spacingRight=4;overflow=hidden;rotatable=0;points=[[0,0.5],[1,0.5]];portConstraint=eastwest;whiteSpace=wrap;html=1;fontSize=13;" parent="q92lbC2dsx9e7F62Pgex-24" vertex="1">
          <mxGeometry y="104" width="250" height="26" as="geometry" />
        </mxCell>
        <mxCell id="Qn0OpZdaU_wwA8IJ9mMy-27" value="+ packAmount: int" style="text;strokeColor=none;fillColor=none;align=left;verticalAlign=top;spacingLeft=4;spacingRight=4;overflow=hidden;rotatable=0;points=[[0,0.5],[1,0.5]];portConstraint=eastwest;whiteSpace=wrap;html=1;fontSize=13;" parent="q92lbC2dsx9e7F62Pgex-24" vertex="1">
          <mxGeometry y="130" width="250" height="26" as="geometry" />
        </mxCell>
        <mxCell id="q92lbC2dsx9e7F62Pgex-26" value="" style="line;strokeWidth=1;fillColor=none;align=left;verticalAlign=middle;spacingTop=-1;spacingLeft=3;spacingRight=3;rotatable=0;labelPosition=right;points=[];portConstraint=eastwest;strokeColor=inherit;fontSize=13;" parent="q92lbC2dsx9e7F62Pgex-24" vertex="1">
          <mxGeometry y="156" width="250" height="8" as="geometry" />
        </mxCell>
        <mxCell id="q92lbC2dsx9e7F62Pgex-27" value="+ initTruck(Truck*): int" style="text;strokeColor=none;fillColor=none;align=left;verticalAlign=top;spacingLeft=4;spacingRight=4;overflow=hidden;rotatable=0;points=[[0,0.5],[1,0.5]];portConstraint=eastwest;whiteSpace=wrap;html=1;fontSize=13;" parent="q92lbC2dsx9e7F62Pgex-24" vertex="1">
          <mxGeometry y="164" width="250" height="26" as="geometry" />
        </mxCell>
        <mxCell id="q92lbC2dsx9e7F62Pgex-83" value="+ addPack(Truck*): int" style="text;strokeColor=none;fillColor=none;align=left;verticalAlign=top;spacingLeft=4;spacingRight=4;overflow=hidden;rotatable=0;points=[[0,0.5],[1,0.5]];portConstraint=eastwest;whiteSpace=wrap;html=1;fontSize=13;" parent="q92lbC2dsx9e7F62Pgex-24" vertex="1">
          <mxGeometry y="190" width="250" height="26" as="geometry" />
        </mxCell>
        <mxCell id="q92lbC2dsx9e7F62Pgex-81" value="+ printTruck(Truck*): void" style="text;strokeColor=none;fillColor=none;align=left;verticalAlign=top;spacingLeft=4;spacingRight=4;overflow=hidden;rotatable=0;points=[[0,0.5],[1,0.5]];portConstraint=eastwest;whiteSpace=wrap;html=1;fontSize=13;" parent="q92lbC2dsx9e7F62Pgex-24" vertex="1">
          <mxGeometry y="216" width="250" height="26" as="geometry" />
        </mxCell>
        <mxCell id="q92lbC2dsx9e7F62Pgex-28" value="&lt;b style=&quot;border-color: var(--border-color); font-size: 13px;&quot;&gt;&lt;b style=&quot;border-color: var(--border-color); font-size: 13px;&quot;&gt;BottlePacking&lt;br style=&quot;font-size: 13px;&quot;&gt;&lt;/b&gt;&lt;br style=&quot;font-size: 13px;&quot;&gt;&lt;br style=&quot;font-size: 13px;&quot;&gt;&lt;/b&gt;" style="swimlane;fontStyle=1;align=center;verticalAlign=top;childLayout=stackLayout;horizontal=1;startSize=26;horizontalStack=0;resizeParent=1;resizeParentMax=0;resizeLast=0;collapsible=1;marginBottom=0;whiteSpace=wrap;html=1;fontSize=13;" parent="1" vertex="1">
          <mxGeometry x="-2120.2" y="-726" width="259.8" height="138" as="geometry" />
        </mxCell>
        <mxCell id="q92lbC2dsx9e7F62Pgex-29" value="+ bottle: Bottle" style="text;strokeColor=none;fillColor=none;align=left;verticalAlign=top;spacingLeft=4;spacingRight=4;overflow=hidden;rotatable=0;points=[[0,0.5],[1,0.5]];portConstraint=eastwest;whiteSpace=wrap;html=1;fontSize=13;" parent="q92lbC2dsx9e7F62Pgex-28" vertex="1">
          <mxGeometry y="26" width="259.8" height="26" as="geometry" />
        </mxCell>
        <mxCell id="q92lbC2dsx9e7F62Pgex-43" value="+ quantity: int" style="text;strokeColor=none;fillColor=none;align=left;verticalAlign=top;spacingLeft=4;spacingRight=4;overflow=hidden;rotatable=0;points=[[0,0.5],[1,0.5]];portConstraint=eastwest;whiteSpace=wrap;html=1;fontSize=13;" parent="q92lbC2dsx9e7F62Pgex-28" vertex="1">
          <mxGeometry y="52" width="259.8" height="26" as="geometry" />
        </mxCell>
        <mxCell id="q92lbC2dsx9e7F62Pgex-30" value="" style="line;strokeWidth=1;fillColor=none;align=left;verticalAlign=middle;spacingTop=-1;spacingLeft=3;spacingRight=3;rotatable=0;labelPosition=right;points=[];portConstraint=eastwest;strokeColor=inherit;fontSize=13;" parent="q92lbC2dsx9e7F62Pgex-28" vertex="1">
          <mxGeometry y="78" width="259.8" height="8" as="geometry" />
        </mxCell>
        <mxCell id="q92lbC2dsx9e7F62Pgex-31" value="+ initBottlePacking(&lt;span style=&quot;border-color: var(--border-color); text-align: center; font-size: 13px;&quot;&gt;BottlePacking*&lt;/span&gt;): int" style="text;strokeColor=none;fillColor=none;align=left;verticalAlign=top;spacingLeft=4;spacingRight=4;overflow=hidden;rotatable=0;points=[[0,0.5],[1,0.5]];portConstraint=eastwest;whiteSpace=wrap;html=1;fontSize=13;" parent="q92lbC2dsx9e7F62Pgex-28" vertex="1">
          <mxGeometry y="86" width="259.8" height="26" as="geometry" />
        </mxCell>
        <mxCell id="OBeASC8JN5czfZ92_RCb-45" value="+ printBottlePackingPtr(void*): void" style="text;strokeColor=none;fillColor=none;align=left;verticalAlign=top;spacingLeft=4;spacingRight=4;overflow=hidden;rotatable=0;points=[[0,0.5],[1,0.5]];portConstraint=eastwest;whiteSpace=wrap;html=1;fontSize=13;" vertex="1" parent="q92lbC2dsx9e7F62Pgex-28">
          <mxGeometry y="112" width="259.8" height="26" as="geometry" />
        </mxCell>
        <mxCell id="q92lbC2dsx9e7F62Pgex-32" value="&lt;b style=&quot;border-color: var(--border-color); font-size: 13px;&quot;&gt;&lt;b style=&quot;border-color: var(--border-color); font-size: 13px;&quot;&gt;Bottle&lt;br style=&quot;font-size: 13px;&quot;&gt;&lt;/b&gt;&lt;br style=&quot;font-size: 13px;&quot;&gt;&lt;br style=&quot;font-size: 13px;&quot;&gt;&lt;/b&gt;" style="swimlane;fontStyle=1;align=center;verticalAlign=top;childLayout=stackLayout;horizontal=1;startSize=26;horizontalStack=0;resizeParent=1;resizeParentMax=0;resizeLast=0;collapsible=1;marginBottom=0;whiteSpace=wrap;html=1;fontSize=13;" parent="1" vertex="1">
          <mxGeometry x="-2070.2" y="-570" width="210" height="242" as="geometry" />
        </mxCell>
        <mxCell id="q92lbC2dsx9e7F62Pgex-33" value="+ expDate: DateTime" style="text;strokeColor=none;fillColor=none;align=left;verticalAlign=top;spacingLeft=4;spacingRight=4;overflow=hidden;rotatable=0;points=[[0,0.5],[1,0.5]];portConstraint=eastwest;whiteSpace=wrap;html=1;fontSize=13;" parent="q92lbC2dsx9e7F62Pgex-32" vertex="1">
          <mxGeometry y="26" width="210" height="26" as="geometry" />
        </mxCell>
        <mxCell id="q92lbC2dsx9e7F62Pgex-41" value="+ flavor: eFlavorType" style="text;strokeColor=none;fillColor=none;align=left;verticalAlign=top;spacingLeft=4;spacingRight=4;overflow=hidden;rotatable=0;points=[[0,0.5],[1,0.5]];portConstraint=eastwest;whiteSpace=wrap;html=1;fontSize=13;" parent="q92lbC2dsx9e7F62Pgex-32" vertex="1">
          <mxGeometry y="52" width="210" height="26" as="geometry" />
        </mxCell>
        <mxCell id="q92lbC2dsx9e7F62Pgex-40" value="+ sugar: int" style="text;strokeColor=none;fillColor=none;align=left;verticalAlign=top;spacingLeft=4;spacingRight=4;overflow=hidden;rotatable=0;points=[[0,0.5],[1,0.5]];portConstraint=eastwest;whiteSpace=wrap;html=1;fontSize=13;" parent="q92lbC2dsx9e7F62Pgex-32" vertex="1">
          <mxGeometry y="78" width="210" height="26" as="geometry" />
        </mxCell>
        <mxCell id="q92lbC2dsx9e7F62Pgex-68" value="+ calories: int" style="text;strokeColor=none;fillColor=none;align=left;verticalAlign=top;spacingLeft=4;spacingRight=4;overflow=hidden;rotatable=0;points=[[0,0.5],[1,0.5]];portConstraint=eastwest;whiteSpace=wrap;html=1;fontSize=13;" parent="q92lbC2dsx9e7F62Pgex-32" vertex="1">
          <mxGeometry y="104" width="210" height="26" as="geometry" />
        </mxCell>
        <mxCell id="q92lbC2dsx9e7F62Pgex-42" value="+ ml: int" style="text;strokeColor=none;fillColor=none;align=left;verticalAlign=top;spacingLeft=4;spacingRight=4;overflow=hidden;rotatable=0;points=[[0,0.5],[1,0.5]];portConstraint=eastwest;whiteSpace=wrap;html=1;fontSize=13;" parent="q92lbC2dsx9e7F62Pgex-32" vertex="1">
          <mxGeometry y="130" width="210" height="26" as="geometry" />
        </mxCell>
        <mxCell id="q92lbC2dsx9e7F62Pgex-76" value="+ type: eBottleType" style="text;strokeColor=none;fillColor=none;align=left;verticalAlign=top;spacingLeft=4;spacingRight=4;overflow=hidden;rotatable=0;points=[[0,0.5],[1,0.5]];portConstraint=eastwest;whiteSpace=wrap;html=1;fontSize=13;" parent="q92lbC2dsx9e7F62Pgex-32" vertex="1">
          <mxGeometry y="156" width="210" height="26" as="geometry" />
        </mxCell>
        <mxCell id="q92lbC2dsx9e7F62Pgex-34" value="" style="line;strokeWidth=1;fillColor=none;align=left;verticalAlign=middle;spacingTop=-1;spacingLeft=3;spacingRight=3;rotatable=0;labelPosition=right;points=[];portConstraint=eastwest;strokeColor=inherit;fontSize=13;" parent="q92lbC2dsx9e7F62Pgex-32" vertex="1">
          <mxGeometry y="182" width="210" height="8" as="geometry" />
        </mxCell>
        <mxCell id="q92lbC2dsx9e7F62Pgex-35" value="+ initBottle(Bottle*): void" style="text;strokeColor=none;fillColor=none;align=left;verticalAlign=top;spacingLeft=4;spacingRight=4;overflow=hidden;rotatable=0;points=[[0,0.5],[1,0.5]];portConstraint=eastwest;whiteSpace=wrap;html=1;fontSize=13;" parent="q92lbC2dsx9e7F62Pgex-32" vertex="1">
          <mxGeometry y="190" width="210" height="26" as="geometry" />
        </mxCell>
        <mxCell id="q92lbC2dsx9e7F62Pgex-88" value="+ printBottle(Bottle*): void" style="text;strokeColor=none;fillColor=none;align=left;verticalAlign=top;spacingLeft=4;spacingRight=4;overflow=hidden;rotatable=0;points=[[0,0.5],[1,0.5]];portConstraint=eastwest;whiteSpace=wrap;html=1;fontSize=13;" parent="q92lbC2dsx9e7F62Pgex-32" vertex="1">
          <mxGeometry y="216" width="210" height="26" as="geometry" />
        </mxCell>
        <mxCell id="q92lbC2dsx9e7F62Pgex-36" value="&lt;b style=&quot;border-color: var(--border-color); font-size: 13px;&quot;&gt;CocaColaTour&lt;br style=&quot;font-size: 13px;&quot;&gt;&lt;br style=&quot;font-size: 13px;&quot;&gt;&lt;/b&gt;" style="swimlane;fontStyle=1;align=center;verticalAlign=top;childLayout=stackLayout;horizontal=1;startSize=26;horizontalStack=0;resizeParent=1;resizeParentMax=0;resizeLast=0;collapsible=1;marginBottom=0;whiteSpace=wrap;html=1;fontSize=13;" parent="1" vertex="1">
          <mxGeometry x="-1690.2" y="-1050" width="400" height="398" as="geometry" />
        </mxCell>
        <mxCell id="q92lbC2dsx9e7F62Pgex-37" value="+ dateTime: DateTime" style="text;strokeColor=none;fillColor=none;align=left;verticalAlign=top;spacingLeft=4;spacingRight=4;overflow=hidden;rotatable=0;points=[[0,0.5],[1,0.5]];portConstraint=eastwest;whiteSpace=wrap;html=1;fontSize=13;" parent="q92lbC2dsx9e7F62Pgex-36" vertex="1">
          <mxGeometry y="26" width="400" height="26" as="geometry" />
        </mxCell>
        <mxCell id="q92lbC2dsx9e7F62Pgex-47" value="+ duration: unsigned" style="text;strokeColor=none;fillColor=none;align=left;verticalAlign=top;spacingLeft=4;spacingRight=4;overflow=hidden;rotatable=0;points=[[0,0.5],[1,0.5]];portConstraint=eastwest;whiteSpace=wrap;html=1;fontSize=13;" parent="q92lbC2dsx9e7F62Pgex-36" vertex="1">
          <mxGeometry y="52" width="400" height="26" as="geometry" />
        </mxCell>
        <mxCell id="q92lbC2dsx9e7F62Pgex-46" value="+ guide: Employee*" style="text;strokeColor=none;fillColor=none;align=left;verticalAlign=top;spacingLeft=4;spacingRight=4;overflow=hidden;rotatable=0;points=[[0,0.5],[1,0.5]];portConstraint=eastwest;whiteSpace=wrap;html=1;fontSize=13;" parent="q92lbC2dsx9e7F62Pgex-36" vertex="1">
          <mxGeometry y="78" width="400" height="26" as="geometry" />
        </mxCell>
        <mxCell id="q92lbC2dsx9e7F62Pgex-74" value="+ events: LIST" style="text;strokeColor=none;fillColor=none;align=left;verticalAlign=top;spacingLeft=4;spacingRight=4;overflow=hidden;rotatable=0;points=[[0,0.5],[1,0.5]];portConstraint=eastwest;whiteSpace=wrap;html=1;fontSize=13;" parent="q92lbC2dsx9e7F62Pgex-36" vertex="1">
          <mxGeometry y="104" width="400" height="26" as="geometry" />
        </mxCell>
        <mxCell id="q92lbC2dsx9e7F62Pgex-67" value="+ visitorsAmount: unsigned" style="text;strokeColor=none;fillColor=none;align=left;verticalAlign=top;spacingLeft=4;spacingRight=4;overflow=hidden;rotatable=0;points=[[0,0.5],[1,0.5]];portConstraint=eastwest;whiteSpace=wrap;html=1;fontSize=13;" parent="q92lbC2dsx9e7F62Pgex-36" vertex="1">
          <mxGeometry y="130" width="400" height="26" as="geometry" />
        </mxCell>
        <mxCell id="q92lbC2dsx9e7F62Pgex-38" value="" style="line;strokeWidth=1;fillColor=none;align=left;verticalAlign=middle;spacingTop=-1;spacingLeft=3;spacingRight=3;rotatable=0;labelPosition=right;points=[];portConstraint=eastwest;strokeColor=inherit;fontSize=13;" parent="q92lbC2dsx9e7F62Pgex-36" vertex="1">
          <mxGeometry y="156" width="400" height="8" as="geometry" />
        </mxCell>
        <mxCell id="q92lbC2dsx9e7F62Pgex-39" value="+ initCocaColaTour(CocaColaTour*,Employee*,char*,LIST): int" style="text;strokeColor=none;fillColor=none;align=left;verticalAlign=top;spacingLeft=4;spacingRight=4;overflow=hidden;rotatable=0;points=[[0,0.5],[1,0.5]];portConstraint=eastwest;whiteSpace=wrap;html=1;fontSize=13;" parent="q92lbC2dsx9e7F62Pgex-36" vertex="1">
          <mxGeometry y="164" width="400" height="26" as="geometry" />
        </mxCell>
        <mxCell id="q92lbC2dsx9e7F62Pgex-134" value="&lt;div style=&quot;text-align: center; font-size: 13px;&quot;&gt;+ fillEventsFromBFile(&lt;span style=&quot;text-align: left;&quot;&gt;CocaColaTour&lt;/span&gt;&lt;span style=&quot;background-color: initial; font-size: 13px;&quot;&gt;*,const char*, const LIST&lt;/span&gt;&lt;span style=&quot;background-color: initial; font-size: 13px;&quot;&gt;): int&lt;/span&gt;&lt;/div&gt;" style="text;strokeColor=none;fillColor=none;align=left;verticalAlign=top;spacingLeft=4;spacingRight=4;overflow=hidden;rotatable=0;points=[[0,0.5],[1,0.5]];portConstraint=eastwest;whiteSpace=wrap;html=1;fontSize=13;" parent="q92lbC2dsx9e7F62Pgex-36" vertex="1">
          <mxGeometry y="190" width="400" height="26" as="geometry" />
        </mxCell>
        <mxCell id="OBeASC8JN5czfZ92_RCb-52" value="&lt;div style=&quot;text-align: center; font-size: 13px;&quot;&gt;+ fillEventsFromFactory(&lt;span style=&quot;text-align: left;&quot;&gt;CocaColaTour&lt;/span&gt;&lt;span style=&quot;background-color: initial; font-size: 13px;&quot;&gt;*, const LIST&lt;/span&gt;&lt;span style=&quot;background-color: initial; font-size: 13px;&quot;&gt;): int&lt;/span&gt;&lt;/div&gt;" style="text;strokeColor=none;fillColor=none;align=left;verticalAlign=top;spacingLeft=4;spacingRight=4;overflow=hidden;rotatable=0;points=[[0,0.5],[1,0.5]];portConstraint=eastwest;whiteSpace=wrap;html=1;fontSize=13;" vertex="1" parent="q92lbC2dsx9e7F62Pgex-36">
          <mxGeometry y="216" width="400" height="26" as="geometry" />
        </mxCell>
        <mxCell id="q92lbC2dsx9e7F62Pgex-127" value="+ compareTourByDateTime(const void*, const void*): int" style="text;strokeColor=none;fillColor=none;align=left;verticalAlign=top;spacingLeft=4;spacingRight=4;overflow=hidden;rotatable=0;points=[[0,0.5],[1,0.5]];portConstraint=eastwest;whiteSpace=wrap;html=1;fontSize=13;" parent="q92lbC2dsx9e7F62Pgex-36" vertex="1">
          <mxGeometry y="242" width="400" height="26" as="geometry" />
        </mxCell>
        <mxCell id="q92lbC2dsx9e7F62Pgex-128" value="+ compareTourByGuide(const void*, const void*): int" style="text;strokeColor=none;fillColor=none;align=left;verticalAlign=top;spacingLeft=4;spacingRight=4;overflow=hidden;rotatable=0;points=[[0,0.5],[1,0.5]];portConstraint=eastwest;whiteSpace=wrap;html=1;fontSize=13;" parent="q92lbC2dsx9e7F62Pgex-36" vertex="1">
          <mxGeometry y="268" width="400" height="26" as="geometry" />
        </mxCell>
        <mxCell id="q92lbC2dsx9e7F62Pgex-129" value="+ compareTourByDuration(const void*, const void*): int" style="text;strokeColor=none;fillColor=none;align=left;verticalAlign=top;spacingLeft=4;spacingRight=4;overflow=hidden;rotatable=0;points=[[0,0.5],[1,0.5]];portConstraint=eastwest;whiteSpace=wrap;html=1;fontSize=13;" parent="q92lbC2dsx9e7F62Pgex-36" vertex="1">
          <mxGeometry y="294" width="400" height="26" as="geometry" />
        </mxCell>
        <mxCell id="q92lbC2dsx9e7F62Pgex-105" value="+ printCocaColaTourPtr(void*): void" style="text;strokeColor=none;fillColor=none;align=left;verticalAlign=top;spacingLeft=4;spacingRight=4;overflow=hidden;rotatable=0;points=[[0,0.5],[1,0.5]];portConstraint=eastwest;whiteSpace=wrap;html=1;fontSize=13;" parent="q92lbC2dsx9e7F62Pgex-36" vertex="1">
          <mxGeometry y="320" width="400" height="26" as="geometry" />
        </mxCell>
        <mxCell id="q92lbC2dsx9e7F62Pgex-106" value="+ freeCocaColaTourPtr(void*): void" style="text;strokeColor=none;fillColor=none;align=left;verticalAlign=top;spacingLeft=4;spacingRight=4;overflow=hidden;rotatable=0;points=[[0,0.5],[1,0.5]];portConstraint=eastwest;whiteSpace=wrap;html=1;fontSize=13;" parent="q92lbC2dsx9e7F62Pgex-36" vertex="1">
          <mxGeometry y="346" width="400" height="26" as="geometry" />
        </mxCell>
        <mxCell id="OBeASC8JN5czfZ92_RCb-53" value="+ startTour(CocaColaTour*) : void" style="text;strokeColor=none;fillColor=none;align=left;verticalAlign=top;spacingLeft=4;spacingRight=4;overflow=hidden;rotatable=0;points=[[0,0.5],[1,0.5]];portConstraint=eastwest;whiteSpace=wrap;html=1;fontSize=13;" vertex="1" parent="q92lbC2dsx9e7F62Pgex-36">
          <mxGeometry y="372" width="400" height="26" as="geometry" />
        </mxCell>
        <mxCell id="q92lbC2dsx9e7F62Pgex-48" value="&lt;b style=&quot;border-color: var(--border-color); font-size: 13px;&quot;&gt;HistorcalEvent&lt;br style=&quot;font-size: 13px;&quot;&gt;&lt;br style=&quot;font-size: 13px;&quot;&gt;&lt;/b&gt;" style="swimlane;fontStyle=1;align=center;verticalAlign=top;childLayout=stackLayout;horizontal=1;startSize=26;horizontalStack=0;resizeParent=1;resizeParentMax=0;resizeLast=0;collapsible=1;marginBottom=0;whiteSpace=wrap;html=1;fontSize=13;" parent="1" vertex="1">
          <mxGeometry x="-1720" y="-620" width="370" height="216" as="geometry" />
        </mxCell>
        <mxCell id="q92lbC2dsx9e7F62Pgex-49" value="+ eventDate: DateTime" style="text;strokeColor=none;fillColor=none;align=left;verticalAlign=top;spacingLeft=4;spacingRight=4;overflow=hidden;rotatable=0;points=[[0,0.5],[1,0.5]];portConstraint=eastwest;whiteSpace=wrap;html=1;fontSize=13;" parent="q92lbC2dsx9e7F62Pgex-48" vertex="1">
          <mxGeometry y="26" width="370" height="26" as="geometry" />
        </mxCell>
        <mxCell id="q92lbC2dsx9e7F62Pgex-50" value="+ description: char*" style="text;strokeColor=none;fillColor=none;align=left;verticalAlign=top;spacingLeft=4;spacingRight=4;overflow=hidden;rotatable=0;points=[[0,0.5],[1,0.5]];portConstraint=eastwest;whiteSpace=wrap;html=1;fontSize=13;" parent="q92lbC2dsx9e7F62Pgex-48" vertex="1">
          <mxGeometry y="52" width="370" height="26" as="geometry" />
        </mxCell>
        <mxCell id="q92lbC2dsx9e7F62Pgex-53" value="" style="line;strokeWidth=1;fillColor=none;align=left;verticalAlign=middle;spacingTop=-1;spacingLeft=3;spacingRight=3;rotatable=0;labelPosition=right;points=[];portConstraint=eastwest;strokeColor=inherit;fontSize=13;" parent="q92lbC2dsx9e7F62Pgex-48" vertex="1">
          <mxGeometry y="78" width="370" height="8" as="geometry" />
        </mxCell>
        <mxCell id="q92lbC2dsx9e7F62Pgex-54" value="+ initHistoricalEvent(&lt;span style=&quot;border-color: var(--border-color); text-align: center; font-size: 13px;&quot;&gt;HistorcalEvent*&lt;/span&gt;): int" style="text;strokeColor=none;fillColor=none;align=left;verticalAlign=top;spacingLeft=4;spacingRight=4;overflow=hidden;rotatable=0;points=[[0,0.5],[1,0.5]];portConstraint=eastwest;whiteSpace=wrap;html=1;fontSize=13;" parent="q92lbC2dsx9e7F62Pgex-48" vertex="1">
          <mxGeometry y="86" width="370" height="26" as="geometry" />
        </mxCell>
        <mxCell id="q92lbC2dsx9e7F62Pgex-108" value="+ printHistoricalEvent(&lt;span style=&quot;border-color: var(--border-color); text-align: center; font-size: 13px;&quot;&gt;HistorcalEvent*&lt;/span&gt;): void" style="text;strokeColor=none;fillColor=none;align=left;verticalAlign=top;spacingLeft=4;spacingRight=4;overflow=hidden;rotatable=0;points=[[0,0.5],[1,0.5]];portConstraint=eastwest;whiteSpace=wrap;html=1;fontSize=13;" parent="q92lbC2dsx9e7F62Pgex-48" vertex="1">
          <mxGeometry y="112" width="370" height="26" as="geometry" />
        </mxCell>
        <mxCell id="q92lbC2dsx9e7F62Pgex-142" value="+ freeHistoricalEvent(&lt;span style=&quot;border-color: var(--border-color); text-align: center; font-size: 13px;&quot;&gt;void*&lt;/span&gt;): void" style="text;strokeColor=none;fillColor=none;align=left;verticalAlign=top;spacingLeft=4;spacingRight=4;overflow=hidden;rotatable=0;points=[[0,0.5],[1,0.5]];portConstraint=eastwest;whiteSpace=wrap;html=1;fontSize=13;" parent="q92lbC2dsx9e7F62Pgex-48" vertex="1">
          <mxGeometry y="138" width="370" height="26" as="geometry" />
        </mxCell>
        <mxCell id="OBeASC8JN5czfZ92_RCb-48" value="+ compareEventByDateTime(const void*, const void*): void" style="text;strokeColor=none;fillColor=none;align=left;verticalAlign=top;spacingLeft=4;spacingRight=4;overflow=hidden;rotatable=0;points=[[0,0.5],[1,0.5]];portConstraint=eastwest;whiteSpace=wrap;html=1;fontSize=13;" vertex="1" parent="q92lbC2dsx9e7F62Pgex-48">
          <mxGeometry y="164" width="370" height="26" as="geometry" />
        </mxCell>
        <mxCell id="OBeASC8JN5czfZ92_RCb-50" value="+ compareEventByDescription(const void*, const void*): void" style="text;strokeColor=none;fillColor=none;align=left;verticalAlign=top;spacingLeft=4;spacingRight=4;overflow=hidden;rotatable=0;points=[[0,0.5],[1,0.5]];portConstraint=eastwest;whiteSpace=wrap;html=1;fontSize=13;" vertex="1" parent="q92lbC2dsx9e7F62Pgex-48">
          <mxGeometry y="190" width="370" height="26" as="geometry" />
        </mxCell>
        <mxCell id="q92lbC2dsx9e7F62Pgex-55" value="Supplier" style="swimlane;fontStyle=1;align=center;verticalAlign=top;childLayout=stackLayout;horizontal=1;startSize=26;horizontalStack=0;resizeParent=1;resizeParentMax=0;resizeLast=0;collapsible=1;marginBottom=0;whiteSpace=wrap;html=1;fontSize=13;" parent="1" vertex="1">
          <mxGeometry x="-1950" y="-1034" width="180" height="216" as="geometry" />
        </mxCell>
        <mxCell id="OBeASC8JN5czfZ92_RCb-46" value="+ id: int" style="text;strokeColor=none;fillColor=none;align=left;verticalAlign=top;spacingLeft=4;spacingRight=4;overflow=hidden;rotatable=0;points=[[0,0.5],[1,0.5]];portConstraint=eastwest;whiteSpace=wrap;html=1;fontSize=13;" vertex="1" parent="q92lbC2dsx9e7F62Pgex-55">
          <mxGeometry y="26" width="180" height="26" as="geometry" />
        </mxCell>
        <mxCell id="q92lbC2dsx9e7F62Pgex-56" value="+ name: char*" style="text;strokeColor=none;fillColor=none;align=left;verticalAlign=top;spacingLeft=4;spacingRight=4;overflow=hidden;rotatable=0;points=[[0,0.5],[1,0.5]];portConstraint=eastwest;whiteSpace=wrap;html=1;fontSize=13;" parent="q92lbC2dsx9e7F62Pgex-55" vertex="1">
          <mxGeometry y="52" width="180" height="26" as="geometry" />
        </mxCell>
        <mxCell id="q92lbC2dsx9e7F62Pgex-77" value="+ phoneNo[LEN+1]&amp;nbsp;: char" style="text;strokeColor=none;fillColor=none;align=left;verticalAlign=top;spacingLeft=4;spacingRight=4;overflow=hidden;rotatable=0;points=[[0,0.5],[1,0.5]];portConstraint=eastwest;whiteSpace=wrap;html=1;fontSize=13;" parent="q92lbC2dsx9e7F62Pgex-55" vertex="1">
          <mxGeometry y="78" width="180" height="26" as="geometry" />
        </mxCell>
        <mxCell id="q92lbC2dsx9e7F62Pgex-59" value="+ address: Address" style="text;strokeColor=none;fillColor=none;align=left;verticalAlign=top;spacingLeft=4;spacingRight=4;overflow=hidden;rotatable=0;points=[[0,0.5],[1,0.5]];portConstraint=eastwest;whiteSpace=wrap;html=1;fontSize=13;" parent="q92lbC2dsx9e7F62Pgex-55" vertex="1">
          <mxGeometry y="104" width="180" height="26" as="geometry" />
        </mxCell>
        <mxCell id="q92lbC2dsx9e7F62Pgex-57" value="" style="line;strokeWidth=1;fillColor=none;align=left;verticalAlign=middle;spacingTop=-1;spacingLeft=3;spacingRight=3;rotatable=0;labelPosition=right;points=[];portConstraint=eastwest;strokeColor=inherit;fontSize=13;" parent="q92lbC2dsx9e7F62Pgex-55" vertex="1">
          <mxGeometry y="130" width="180" height="8" as="geometry" />
        </mxCell>
        <mxCell id="q92lbC2dsx9e7F62Pgex-80" value="+ initSupplier(Supplier*):&amp;nbsp;int" style="text;strokeColor=none;fillColor=none;align=left;verticalAlign=top;spacingLeft=4;spacingRight=4;overflow=hidden;rotatable=0;points=[[0,0.5],[1,0.5]];portConstraint=eastwest;whiteSpace=wrap;html=1;fontSize=13;" parent="q92lbC2dsx9e7F62Pgex-55" vertex="1">
          <mxGeometry y="138" width="180" height="26" as="geometry" />
        </mxCell>
        <mxCell id="q92lbC2dsx9e7F62Pgex-58" value="+ printSupplier: void*" style="text;strokeColor=none;fillColor=none;align=left;verticalAlign=top;spacingLeft=4;spacingRight=4;overflow=hidden;rotatable=0;points=[[0,0.5],[1,0.5]];portConstraint=eastwest;whiteSpace=wrap;html=1;fontSize=13;" parent="q92lbC2dsx9e7F62Pgex-55" vertex="1">
          <mxGeometry y="164" width="180" height="26" as="geometry" />
        </mxCell>
        <mxCell id="q92lbC2dsx9e7F62Pgex-79" value="+ freeSupplier: void*" style="text;strokeColor=none;fillColor=none;align=left;verticalAlign=top;spacingLeft=4;spacingRight=4;overflow=hidden;rotatable=0;points=[[0,0.5],[1,0.5]];portConstraint=eastwest;whiteSpace=wrap;html=1;fontSize=13;" parent="q92lbC2dsx9e7F62Pgex-55" vertex="1">
          <mxGeometry y="190" width="180" height="26" as="geometry" />
        </mxCell>
        <mxCell id="q92lbC2dsx9e7F62Pgex-64" style="edgeStyle=orthogonalEdgeStyle;rounded=0;orthogonalLoop=1;jettySize=auto;html=1;exitX=1;exitY=0.5;exitDx=0;exitDy=0;entryX=0.5;entryY=0;entryDx=0;entryDy=0;endArrow=none;endFill=0;startArrow=diamondThin;startFill=0;endSize=20;startSize=20;fontSize=13;" parent="1" source="q92lbC2dsx9e7F62Pgex-62" target="q92lbC2dsx9e7F62Pgex-36" edge="1">
          <mxGeometry relative="1" as="geometry">
            <mxPoint x="-1720.2" y="-1219" as="sourcePoint" />
            <mxPoint x="-1690.2" y="-1060" as="targetPoint" />
          </mxGeometry>
        </mxCell>
        <mxCell id="q92lbC2dsx9e7F62Pgex-66" style="edgeStyle=orthogonalEdgeStyle;rounded=0;orthogonalLoop=1;jettySize=auto;html=1;entryX=0.25;entryY=0;entryDx=0;entryDy=0;exitX=0;exitY=0.5;exitDx=0;exitDy=0;endArrow=none;endFill=0;startArrow=diamondThin;startFill=0;startSize=20;fontSize=13;" parent="1" source="q92lbC2dsx9e7F62Pgex-65" target="q92lbC2dsx9e7F62Pgex-55" edge="1">
          <mxGeometry relative="1" as="geometry">
            <Array as="points">
              <mxPoint x="-2000" y="-1675" />
              <mxPoint x="-2000" y="-1080" />
              <mxPoint x="-1905" y="-1080" />
            </Array>
          </mxGeometry>
        </mxCell>
        <mxCell id="q92lbC2dsx9e7F62Pgex-72" style="edgeStyle=orthogonalEdgeStyle;rounded=0;orthogonalLoop=1;jettySize=auto;html=1;endArrow=none;endFill=0;startArrow=diamondThin;startFill=0;startSize=20;exitX=1;exitY=0.5;exitDx=0;exitDy=0;entryX=-0.002;entryY=0.113;entryDx=0;entryDy=0;entryPerimeter=0;fontSize=13;" parent="1" source="q92lbC2dsx9e7F62Pgex-122" target="q92lbC2dsx9e7F62Pgex-48" edge="1">
          <mxGeometry relative="1" as="geometry">
            <mxPoint x="-1556.2" y="-1467.11" as="sourcePoint" />
            <mxPoint x="-1670.2" y="-570" as="targetPoint" />
            <Array as="points">
              <mxPoint x="-1500" y="-1623" />
              <mxPoint x="-1500" y="-1060" />
              <mxPoint x="-1730" y="-1060" />
              <mxPoint x="-1730" y="-569" />
            </Array>
          </mxGeometry>
        </mxCell>
        <mxCell id="q92lbC2dsx9e7F62Pgex-86" value="&lt;p style=&quot;margin: 4px 0px 0px; text-align: center; font-size: 13px;&quot;&gt;«enum»&lt;b style=&quot;font-size: 13px;&quot;&gt;&lt;br style=&quot;font-size: 13px;&quot;&gt;&lt;/b&gt;&lt;/p&gt;&lt;p style=&quot;margin: 4px 0px 0px; text-align: center; text-decoration: underline; font-size: 13px;&quot;&gt;&lt;b style=&quot;font-size: 13px;&quot;&gt;eFlavorType&lt;/b&gt;&lt;/p&gt;&lt;hr style=&quot;font-size: 13px;&quot;&gt;&lt;p style=&quot;margin: 0px 0px 0px 8px; font-size: 13px;&quot;&gt;classic&lt;/p&gt;&lt;p style=&quot;margin: 0px 0px 0px 8px; font-size: 13px;&quot;&gt;zero&lt;/p&gt;&lt;p style=&quot;margin: 0px 0px 0px 8px; font-size: 13px;&quot;&gt;lemon&lt;/p&gt;&lt;p style=&quot;margin: 0px 0px 0px 8px; font-size: 13px;&quot;&gt;non-caffein&lt;/p&gt;" style="verticalAlign=top;align=left;overflow=fill;html=1;whiteSpace=wrap;fontSize=13;" parent="1" vertex="1">
          <mxGeometry x="-2280.2" y="-565" width="160" height="118" as="geometry" />
        </mxCell>
        <mxCell id="q92lbC2dsx9e7F62Pgex-87" value="&lt;p style=&quot;border-color: var(--border-color); margin: 4px 0px 0px; text-align: center; font-size: 13px;&quot;&gt;«enum»&lt;/p&gt;&lt;p style=&quot;margin: 4px 0px 0px; text-align: center; text-decoration: underline; font-size: 13px;&quot;&gt;&lt;b style=&quot;font-size: 13px;&quot;&gt;eBottleType&lt;/b&gt;&lt;/p&gt;&lt;hr style=&quot;font-size: 13px;&quot;&gt;&lt;p style=&quot;margin: 0px 0px 0px 8px; font-size: 13px;&quot;&gt;plastic&lt;/p&gt;&lt;p style=&quot;margin: 0px 0px 0px 8px; font-size: 13px;&quot;&gt;glass&lt;/p&gt;&lt;p style=&quot;margin: 0px 0px 0px 8px; font-size: 13px;&quot;&gt;can&lt;/p&gt;" style="verticalAlign=top;align=left;overflow=fill;html=1;whiteSpace=wrap;fontSize=13;" parent="1" vertex="1">
          <mxGeometry x="-2280.2" y="-430" width="160" height="102" as="geometry" />
        </mxCell>
        <mxCell id="q92lbC2dsx9e7F62Pgex-89" value="&lt;b style=&quot;border-color: var(--border-color); font-size: 13px;&quot;&gt;&lt;b style=&quot;border-color: var(--border-color); font-size: 13px;&quot;&gt;DateTime&lt;br style=&quot;font-size: 13px;&quot;&gt;&lt;/b&gt;&lt;br style=&quot;font-size: 13px;&quot;&gt;&lt;br style=&quot;font-size: 13px;&quot;&gt;&lt;/b&gt;" style="swimlane;fontStyle=1;align=center;verticalAlign=top;childLayout=stackLayout;horizontal=1;startSize=26;horizontalStack=0;resizeParent=1;resizeParentMax=0;resizeLast=0;collapsible=1;marginBottom=0;whiteSpace=wrap;html=1;fontSize=13;fillColor=#d5e8d4;strokeColor=#82b366;" parent="1" vertex="1">
          <mxGeometry x="-1540" y="-328" width="310" height="242" as="geometry" />
        </mxCell>
        <mxCell id="q92lbC2dsx9e7F62Pgex-90" value="+ day: unsigned" style="text;strokeColor=none;fillColor=none;align=left;verticalAlign=top;spacingLeft=4;spacingRight=4;overflow=hidden;rotatable=0;points=[[0,0.5],[1,0.5]];portConstraint=eastwest;whiteSpace=wrap;html=1;fontSize=13;" parent="q92lbC2dsx9e7F62Pgex-89" vertex="1">
          <mxGeometry y="26" width="310" height="26" as="geometry" />
        </mxCell>
        <mxCell id="q92lbC2dsx9e7F62Pgex-98" value="+ month: unsigned" style="text;strokeColor=none;fillColor=none;align=left;verticalAlign=top;spacingLeft=4;spacingRight=4;overflow=hidden;rotatable=0;points=[[0,0.5],[1,0.5]];portConstraint=eastwest;whiteSpace=wrap;html=1;fontSize=13;" parent="q92lbC2dsx9e7F62Pgex-89" vertex="1">
          <mxGeometry y="52" width="310" height="26" as="geometry" />
        </mxCell>
        <mxCell id="q92lbC2dsx9e7F62Pgex-97" value="+ year: unsigned" style="text;strokeColor=none;fillColor=none;align=left;verticalAlign=top;spacingLeft=4;spacingRight=4;overflow=hidden;rotatable=0;points=[[0,0.5],[1,0.5]];portConstraint=eastwest;whiteSpace=wrap;html=1;fontSize=13;" parent="q92lbC2dsx9e7F62Pgex-89" vertex="1">
          <mxGeometry y="78" width="310" height="26" as="geometry" />
        </mxCell>
        <mxCell id="q92lbC2dsx9e7F62Pgex-100" value="+ hour: unsigned" style="text;strokeColor=none;fillColor=none;align=left;verticalAlign=top;spacingLeft=4;spacingRight=4;overflow=hidden;rotatable=0;points=[[0,0.5],[1,0.5]];portConstraint=eastwest;whiteSpace=wrap;html=1;fontSize=13;" parent="q92lbC2dsx9e7F62Pgex-89" vertex="1">
          <mxGeometry y="104" width="310" height="26" as="geometry" />
        </mxCell>
        <mxCell id="q92lbC2dsx9e7F62Pgex-99" value="+ min: unsigned" style="text;strokeColor=none;fillColor=none;align=left;verticalAlign=top;spacingLeft=4;spacingRight=4;overflow=hidden;rotatable=0;points=[[0,0.5],[1,0.5]];portConstraint=eastwest;whiteSpace=wrap;html=1;fontSize=13;" parent="q92lbC2dsx9e7F62Pgex-89" vertex="1">
          <mxGeometry y="130" width="310" height="26" as="geometry" />
        </mxCell>
        <mxCell id="q92lbC2dsx9e7F62Pgex-91" value="" style="line;strokeWidth=1;fillColor=none;align=left;verticalAlign=middle;spacingTop=-1;spacingLeft=3;spacingRight=3;rotatable=0;labelPosition=right;points=[];portConstraint=eastwest;strokeColor=inherit;fontSize=13;" parent="q92lbC2dsx9e7F62Pgex-89" vertex="1">
          <mxGeometry y="156" width="310" height="8" as="geometry" />
        </mxCell>
        <mxCell id="q92lbC2dsx9e7F62Pgex-92" value="+ initDateTime(Date*): int" style="text;strokeColor=none;fillColor=none;align=left;verticalAlign=top;spacingLeft=4;spacingRight=4;overflow=hidden;rotatable=0;points=[[0,0.5],[1,0.5]];portConstraint=eastwest;whiteSpace=wrap;html=1;fontSize=13;" parent="q92lbC2dsx9e7F62Pgex-89" vertex="1">
          <mxGeometry y="164" width="310" height="26" as="geometry" />
        </mxCell>
        <mxCell id="q92lbC2dsx9e7F62Pgex-137" value="+ printDateTime(DateTime*): void" style="text;strokeColor=none;fillColor=none;align=left;verticalAlign=top;spacingLeft=4;spacingRight=4;overflow=hidden;rotatable=0;points=[[0,0.5],[1,0.5]];portConstraint=eastwest;whiteSpace=wrap;html=1;fontSize=13;" parent="q92lbC2dsx9e7F62Pgex-89" vertex="1">
          <mxGeometry y="190" width="310" height="26" as="geometry" />
        </mxCell>
        <mxCell id="8-N4795P8bHpSPom3xNv-23" value="+ compareDateTime(const void*, const void*): void" style="text;align=left;verticalAlign=top;spacingLeft=4;spacingRight=4;overflow=hidden;rotatable=0;points=[[0,0.5],[1,0.5]];portConstraint=eastwest;whiteSpace=wrap;html=1;fontSize=13;" parent="q92lbC2dsx9e7F62Pgex-89" vertex="1">
          <mxGeometry y="216" width="310" height="26" as="geometry" />
        </mxCell>
        <mxCell id="q92lbC2dsx9e7F62Pgex-93" value="&lt;b style=&quot;border-color: var(--border-color); font-size: 13px;&quot;&gt;&lt;b style=&quot;border-color: var(--border-color); font-size: 13px;&quot;&gt;&lt;b style=&quot;border-color: var(--border-color); font-size: 13px;&quot;&gt;Address&lt;/b&gt;&lt;br style=&quot;font-size: 13px;&quot;&gt;&lt;/b&gt;&lt;br style=&quot;font-size: 13px;&quot;&gt;&lt;br style=&quot;font-size: 13px;&quot;&gt;&lt;/b&gt;" style="swimlane;fontStyle=1;align=center;verticalAlign=top;childLayout=stackLayout;horizontal=1;startSize=26;horizontalStack=0;resizeParent=1;resizeParentMax=0;resizeLast=0;collapsible=1;marginBottom=0;whiteSpace=wrap;html=1;fontSize=13;fillColor=#d5e8d4;strokeColor=#82b366;" parent="1" vertex="1">
          <mxGeometry x="-1790.2" y="-328" width="190" height="190" as="geometry" />
        </mxCell>
        <mxCell id="q92lbC2dsx9e7F62Pgex-101" value="+ city: char*" style="text;strokeColor=none;fillColor=none;align=left;verticalAlign=top;spacingLeft=4;spacingRight=4;overflow=hidden;rotatable=0;points=[[0,0.5],[1,0.5]];portConstraint=eastwest;whiteSpace=wrap;html=1;fontSize=13;" parent="q92lbC2dsx9e7F62Pgex-93" vertex="1">
          <mxGeometry y="26" width="190" height="26" as="geometry" />
        </mxCell>
        <mxCell id="q92lbC2dsx9e7F62Pgex-102" value="+ street: char*" style="text;strokeColor=none;fillColor=none;align=left;verticalAlign=top;spacingLeft=4;spacingRight=4;overflow=hidden;rotatable=0;points=[[0,0.5],[1,0.5]];portConstraint=eastwest;whiteSpace=wrap;html=1;fontSize=13;" parent="q92lbC2dsx9e7F62Pgex-93" vertex="1">
          <mxGeometry y="52" width="190" height="26" as="geometry" />
        </mxCell>
        <mxCell id="q92lbC2dsx9e7F62Pgex-94" value="+ houseNo: int" style="text;strokeColor=none;fillColor=none;align=left;verticalAlign=top;spacingLeft=4;spacingRight=4;overflow=hidden;rotatable=0;points=[[0,0.5],[1,0.5]];portConstraint=eastwest;whiteSpace=wrap;html=1;fontSize=13;" parent="q92lbC2dsx9e7F62Pgex-93" vertex="1">
          <mxGeometry y="78" width="190" height="26" as="geometry" />
        </mxCell>
        <mxCell id="q92lbC2dsx9e7F62Pgex-95" value="" style="line;strokeWidth=1;fillColor=none;align=left;verticalAlign=middle;spacingTop=-1;spacingLeft=3;spacingRight=3;rotatable=0;labelPosition=right;points=[];portConstraint=eastwest;strokeColor=inherit;fontSize=13;" parent="q92lbC2dsx9e7F62Pgex-93" vertex="1">
          <mxGeometry y="104" width="190" height="8" as="geometry" />
        </mxCell>
        <mxCell id="q92lbC2dsx9e7F62Pgex-96" value="+ initAddress(Address*): void" style="text;strokeColor=none;fillColor=none;align=left;verticalAlign=top;spacingLeft=4;spacingRight=4;overflow=hidden;rotatable=0;points=[[0,0.5],[1,0.5]];portConstraint=eastwest;whiteSpace=wrap;html=1;fontSize=13;" parent="q92lbC2dsx9e7F62Pgex-93" vertex="1">
          <mxGeometry y="112" width="190" height="26" as="geometry" />
        </mxCell>
        <mxCell id="q92lbC2dsx9e7F62Pgex-136" value="+ printAddress(Address*): void" style="text;strokeColor=none;fillColor=none;align=left;verticalAlign=top;spacingLeft=4;spacingRight=4;overflow=hidden;rotatable=0;points=[[0,0.5],[1,0.5]];portConstraint=eastwest;whiteSpace=wrap;html=1;fontSize=13;" parent="q92lbC2dsx9e7F62Pgex-93" vertex="1">
          <mxGeometry y="138" width="190" height="26" as="geometry" />
        </mxCell>
        <mxCell id="q92lbC2dsx9e7F62Pgex-141" value="+ freeAddress(Address*): void" style="text;strokeColor=none;fillColor=none;align=left;verticalAlign=top;spacingLeft=4;spacingRight=4;overflow=hidden;rotatable=0;points=[[0,0.5],[1,0.5]];portConstraint=eastwest;whiteSpace=wrap;html=1;fontSize=13;" parent="q92lbC2dsx9e7F62Pgex-93" vertex="1">
          <mxGeometry y="164" width="190" height="26" as="geometry" />
        </mxCell>
        <mxCell id="q92lbC2dsx9e7F62Pgex-118" value="&lt;b style=&quot;font-size: 13px;&quot;&gt;main&lt;/b&gt;" style="swimlane;fontStyle=0;childLayout=stackLayout;horizontal=1;startSize=26;fillColor=none;horizontalStack=0;resizeParent=1;resizeParentMax=0;resizeLast=0;collapsible=1;marginBottom=0;whiteSpace=wrap;html=1;fontSize=13;" parent="1" vertex="1">
          <mxGeometry x="-930" y="-2010" width="280" height="234" as="geometry" />
        </mxCell>
        <mxCell id="q92lbC2dsx9e7F62Pgex-119" value="+ initCocaColaFactory" style="text;strokeColor=none;fillColor=none;align=left;verticalAlign=top;spacingLeft=4;spacingRight=4;overflow=hidden;rotatable=0;points=[[0,0.5],[1,0.5]];portConstraint=eastwest;whiteSpace=wrap;html=1;fontSize=13;" parent="q92lbC2dsx9e7F62Pgex-118" vertex="1">
          <mxGeometry y="26" width="280" height="26" as="geometry" />
        </mxCell>
        <mxCell id="q92lbC2dsx9e7F62Pgex-144" value="+ Employee Menu" style="text;strokeColor=none;fillColor=none;align=left;verticalAlign=top;spacingLeft=4;spacingRight=4;overflow=hidden;rotatable=0;points=[[0,0.5],[1,0.5]];portConstraint=eastwest;whiteSpace=wrap;html=1;fontSize=13;" parent="q92lbC2dsx9e7F62Pgex-118" vertex="1">
          <mxGeometry y="52" width="280" height="26" as="geometry" />
        </mxCell>
        <mxCell id="q92lbC2dsx9e7F62Pgex-121" value="+ Supplier Menu" style="text;strokeColor=none;fillColor=none;align=left;verticalAlign=top;spacingLeft=4;spacingRight=4;overflow=hidden;rotatable=0;points=[[0,0.5],[1,0.5]];portConstraint=eastwest;whiteSpace=wrap;html=1;fontSize=13;" parent="q92lbC2dsx9e7F62Pgex-118" vertex="1">
          <mxGeometry y="78" width="280" height="26" as="geometry" />
        </mxCell>
        <mxCell id="q92lbC2dsx9e7F62Pgex-120" value="+ Truck menu" style="text;strokeColor=none;fillColor=none;align=left;verticalAlign=top;spacingLeft=4;spacingRight=4;overflow=hidden;rotatable=0;points=[[0,0.5],[1,0.5]];portConstraint=eastwest;whiteSpace=wrap;html=1;fontSize=13;" parent="q92lbC2dsx9e7F62Pgex-118" vertex="1">
          <mxGeometry y="104" width="280" height="26" as="geometry" />
        </mxCell>
        <mxCell id="q92lbC2dsx9e7F62Pgex-147" value="+ Add historical event" style="text;strokeColor=none;fillColor=none;align=left;verticalAlign=top;spacingLeft=4;spacingRight=4;overflow=hidden;rotatable=0;points=[[0,0.5],[1,0.5]];portConstraint=eastwest;whiteSpace=wrap;html=1;fontSize=13;" parent="q92lbC2dsx9e7F62Pgex-118" vertex="1">
          <mxGeometry y="130" width="280" height="26" as="geometry" />
        </mxCell>
        <mxCell id="q92lbC2dsx9e7F62Pgex-145" value="+ Tour menu" style="text;strokeColor=none;fillColor=none;align=left;verticalAlign=top;spacingLeft=4;spacingRight=4;overflow=hidden;rotatable=0;points=[[0,0.5],[1,0.5]];portConstraint=eastwest;whiteSpace=wrap;html=1;fontSize=13;" parent="q92lbC2dsx9e7F62Pgex-118" vertex="1">
          <mxGeometry y="156" width="280" height="26" as="geometry" />
        </mxCell>
        <mxCell id="q92lbC2dsx9e7F62Pgex-148" value="+ Print Factory" style="text;strokeColor=none;fillColor=none;align=left;verticalAlign=top;spacingLeft=4;spacingRight=4;overflow=hidden;rotatable=0;points=[[0,0.5],[1,0.5]];portConstraint=eastwest;whiteSpace=wrap;html=1;fontSize=13;" parent="q92lbC2dsx9e7F62Pgex-118" vertex="1">
          <mxGeometry y="182" width="280" height="26" as="geometry" />
        </mxCell>
        <mxCell id="q92lbC2dsx9e7F62Pgex-149" value="+ Find Secret Recipe" style="text;strokeColor=none;fillColor=none;align=left;verticalAlign=top;spacingLeft=4;spacingRight=4;overflow=hidden;rotatable=0;points=[[0,0.5],[1,0.5]];portConstraint=eastwest;whiteSpace=wrap;html=1;fontSize=13;" parent="q92lbC2dsx9e7F62Pgex-118" vertex="1">
          <mxGeometry y="208" width="280" height="26" as="geometry" />
        </mxCell>
        <mxCell id="q92lbC2dsx9e7F62Pgex-152" style="edgeStyle=orthogonalEdgeStyle;rounded=0;orthogonalLoop=1;jettySize=auto;html=1;entryX=-0.001;entryY=0.071;entryDx=0;entryDy=0;entryPerimeter=0;endArrow=none;endFill=0;startArrow=diamondThin;startFill=0;startSize=20;fontSize=13;" parent="1" source="q92lbC2dsx9e7F62Pgex-63" target="q92lbC2dsx9e7F62Pgex-55" edge="1">
          <mxGeometry relative="1" as="geometry" />
        </mxCell>
        <mxCell id="q92lbC2dsx9e7F62Pgex-153" style="edgeStyle=orthogonalEdgeStyle;rounded=0;orthogonalLoop=1;jettySize=auto;html=1;entryX=1.001;entryY=0.057;entryDx=0;entryDy=0;entryPerimeter=0;endArrow=none;endFill=0;startArrow=diamondThin;startFill=1;startSize=20;fontSize=13;" parent="1" source="q92lbC2dsx9e7F62Pgex-29" target="q92lbC2dsx9e7F62Pgex-32" edge="1">
          <mxGeometry relative="1" as="geometry" />
        </mxCell>
        <mxCell id="q92lbC2dsx9e7F62Pgex-154" style="edgeStyle=orthogonalEdgeStyle;rounded=0;orthogonalLoop=1;jettySize=auto;html=1;endArrow=none;endFill=0;startArrow=diamondThin;startFill=0;startSize=20;fontSize=13;entryX=0.578;entryY=0.003;entryDx=0;entryDy=0;entryPerimeter=0;" parent="1" source="q92lbC2dsx9e7F62Pgex-69" target="q92lbC2dsx9e7F62Pgex-28" edge="1">
          <mxGeometry relative="1" as="geometry">
            <Array as="points">
              <mxPoint x="-1970" y="-995" />
              <mxPoint x="-1970" y="-730" />
            </Array>
            <mxPoint x="-1970" y="-730" as="targetPoint" />
          </mxGeometry>
        </mxCell>
        <mxCell id="q92lbC2dsx9e7F62Pgex-155" style="edgeStyle=orthogonalEdgeStyle;rounded=0;orthogonalLoop=1;jettySize=auto;html=1;entryX=1.007;entryY=0.144;entryDx=0;entryDy=0;entryPerimeter=0;endArrow=none;endFill=0;fontSize=13;" parent="1" source="q92lbC2dsx9e7F62Pgex-41" target="q92lbC2dsx9e7F62Pgex-86" edge="1">
          <mxGeometry relative="1" as="geometry" />
        </mxCell>
        <mxCell id="q92lbC2dsx9e7F62Pgex-157" style="edgeStyle=orthogonalEdgeStyle;rounded=0;orthogonalLoop=1;jettySize=auto;html=1;entryX=0.997;entryY=0.282;entryDx=0;entryDy=0;entryPerimeter=0;endArrow=none;endFill=0;fontSize=13;" parent="1" source="q92lbC2dsx9e7F62Pgex-76" target="q92lbC2dsx9e7F62Pgex-87" edge="1">
          <mxGeometry relative="1" as="geometry" />
        </mxCell>
        <mxCell id="q92lbC2dsx9e7F62Pgex-158" style="edgeStyle=orthogonalEdgeStyle;rounded=0;orthogonalLoop=1;jettySize=auto;html=1;endArrow=none;endFill=0;startArrow=diamondThin;startFill=1;startSize=20;fontSize=13;exitX=1.004;exitY=0.701;exitDx=0;exitDy=0;exitPerimeter=0;" parent="1" source="q92lbC2dsx9e7F62Pgex-56" edge="1">
          <mxGeometry relative="1" as="geometry">
            <Array as="points">
              <mxPoint x="-1740" y="-964" />
              <mxPoint x="-1740" y="-328" />
            </Array>
            <mxPoint x="-1750" y="-970" as="sourcePoint" />
            <mxPoint x="-1740" y="-328" as="targetPoint" />
          </mxGeometry>
        </mxCell>
        <mxCell id="q92lbC2dsx9e7F62Pgex-159" style="edgeStyle=orthogonalEdgeStyle;rounded=0;orthogonalLoop=1;jettySize=auto;html=1;exitX=1;exitY=0.5;exitDx=0;exitDy=0;endArrow=none;endFill=0;startArrow=diamondThin;startFill=1;startSize=20;fontSize=13;" parent="1" source="q92lbC2dsx9e7F62Pgex-33" edge="1">
          <mxGeometry relative="1" as="geometry">
            <Array as="points">
              <mxPoint x="-1790" y="-531" />
              <mxPoint x="-1790" y="-380" />
              <mxPoint x="-1431" y="-380" />
              <mxPoint x="-1431" y="-328" />
            </Array>
            <mxPoint x="-1431" y="-330" as="targetPoint" />
          </mxGeometry>
        </mxCell>
        <mxCell id="q92lbC2dsx9e7F62Pgex-160" style="edgeStyle=orthogonalEdgeStyle;rounded=0;orthogonalLoop=1;jettySize=auto;html=1;entryX=0;entryY=0.151;entryDx=0;entryDy=0;entryPerimeter=0;endArrow=none;endFill=0;startArrow=diamondThin;startFill=0;startSize=20;fontSize=13;" parent="1" source="q92lbC2dsx9e7F62Pgex-46" target="q92lbC2dsx9e7F62Pgex-20" edge="1">
          <mxGeometry relative="1" as="geometry">
            <Array as="points">
              <mxPoint x="-1260" y="-969" />
              <mxPoint x="-1260" y="-1090" />
              <mxPoint x="-1440" y="-1090" />
              <mxPoint x="-1440" y="-1255" />
            </Array>
          </mxGeometry>
        </mxCell>
        <mxCell id="q92lbC2dsx9e7F62Pgex-161" style="edgeStyle=orthogonalEdgeStyle;rounded=0;orthogonalLoop=1;jettySize=auto;html=1;entryX=-0.001;entryY=0.075;entryDx=0;entryDy=0;entryPerimeter=0;endArrow=none;endFill=0;startArrow=diamondThin;startFill=0;startSize=20;fontSize=13;" parent="1" source="q92lbC2dsx9e7F62Pgex-74" target="q92lbC2dsx9e7F62Pgex-48" edge="1">
          <mxGeometry relative="1" as="geometry">
            <Array as="points">
              <mxPoint x="-1720.2" y="-943" />
              <mxPoint x="-1720.2" y="-576" />
            </Array>
          </mxGeometry>
        </mxCell>
        <mxCell id="q92lbC2dsx9e7F62Pgex-162" style="edgeStyle=orthogonalEdgeStyle;rounded=0;orthogonalLoop=1;jettySize=auto;html=1;entryX=0.25;entryY=0;entryDx=0;entryDy=0;endArrow=none;endFill=0;fontSize=13;" parent="1" target="q92lbC2dsx9e7F62Pgex-143" edge="1">
          <mxGeometry relative="1" as="geometry">
            <Array as="points">
              <mxPoint x="-1270" y="-865" />
              <mxPoint x="-1270" y="-610" />
              <mxPoint x="-1290" y="-610" />
              <mxPoint x="-1290" y="-570" />
            </Array>
            <mxPoint x="-1290.2" y="-864.9655172413793" as="sourcePoint" />
          </mxGeometry>
        </mxCell>
        <mxCell id="q92lbC2dsx9e7F62Pgex-164" style="edgeStyle=orthogonalEdgeStyle;rounded=0;orthogonalLoop=1;jettySize=auto;html=1;exitX=0;exitY=0.5;exitDx=0;exitDy=0;endArrow=none;endFill=0;startArrow=diamondThin;startFill=1;startSize=20;fontSize=13;entryX=-0.004;entryY=0.049;entryDx=0;entryDy=0;entryPerimeter=0;" parent="1" source="q92lbC2dsx9e7F62Pgex-25" target="q92lbC2dsx9e7F62Pgex-20" edge="1">
          <mxGeometry relative="1" as="geometry">
            <Array as="points">
              <mxPoint x="-2310" y="-943" />
              <mxPoint x="-2310" y="-50" />
              <mxPoint x="-1210" y="-50" />
              <mxPoint x="-1210" y="-1319" />
            </Array>
            <mxPoint x="-1100" y="-1319" as="targetPoint" />
          </mxGeometry>
        </mxCell>
        <mxCell id="P3gJPgP4zN3aiA-zLJAv-2" value="" style="edgeStyle=orthogonalEdgeStyle;rounded=0;orthogonalLoop=1;jettySize=auto;html=1;endArrow=none;endFill=0;startArrow=diamondThin;startFill=1;startSize=20;fontSize=13;entryX=0.49;entryY=0.002;entryDx=0;entryDy=0;entryPerimeter=0;" parent="1" source="q92lbC2dsx9e7F62Pgex-37" target="q92lbC2dsx9e7F62Pgex-89" edge="1">
          <mxGeometry relative="1" as="geometry">
            <Array as="points">
              <mxPoint x="-1240" y="-1021" />
              <mxPoint x="-1240" y="-370" />
              <mxPoint x="-1388" y="-370" />
              <mxPoint x="-1388" y="-330" />
              <mxPoint x="-1388" y="-330" />
            </Array>
            <mxPoint x="-1290" y="-1021" as="sourcePoint" />
            <mxPoint x="-1390" y="-330" as="targetPoint" />
          </mxGeometry>
        </mxCell>
        <mxCell id="q92lbC2dsx9e7F62Pgex-143" value="&lt;p style=&quot;border-color: var(--border-color); margin: 4px 0px 0px; text-align: center; font-size: 13px;&quot;&gt;«enum»&lt;/p&gt;&lt;p style=&quot;margin: 4px 0px 0px; text-align: center; text-decoration: underline; font-size: 13px;&quot;&gt;&lt;b style=&quot;font-size: 13px;&quot;&gt;eSort&lt;/b&gt;&lt;/p&gt;&lt;hr style=&quot;font-size: 13px;&quot;&gt;&lt;p style=&quot;margin: 0px 0px 0px 8px; font-size: 13px;&quot;&gt;eDate&lt;/p&gt;&lt;p style=&quot;margin: 0px 0px 0px 8px; font-size: 13px;&quot;&gt;eDuration&lt;/p&gt;&lt;p style=&quot;margin: 0px 0px 0px 8px; font-size: 13px;&quot;&gt;eGuide&lt;/p&gt;" style="verticalAlign=top;align=left;overflow=fill;html=1;whiteSpace=wrap;fontSize=13;" parent="1" vertex="1">
          <mxGeometry x="-1330" y="-570" width="80" height="102" as="geometry" />
        </mxCell>
        <mxCell id="P3gJPgP4zN3aiA-zLJAv-3" style="edgeStyle=orthogonalEdgeStyle;rounded=0;orthogonalLoop=1;jettySize=auto;html=1;exitX=1;exitY=0.5;exitDx=0;exitDy=0;entryX=0.425;entryY=0;entryDx=0;entryDy=0;entryPerimeter=0;endArrow=none;endFill=0;startArrow=diamondThin;startFill=1;startSize=20;" parent="1" source="q92lbC2dsx9e7F62Pgex-49" target="q92lbC2dsx9e7F62Pgex-89" edge="1">
          <mxGeometry relative="1" as="geometry">
            <Array as="points">
              <mxPoint x="-1340" y="-549" />
              <mxPoint x="-1340" y="-380" />
              <mxPoint x="-1408" y="-380" />
            </Array>
          </mxGeometry>
        </mxCell>
        <mxCell id="OBeASC8JN5czfZ92_RCb-63" style="edgeStyle=orthogonalEdgeStyle;rounded=0;orthogonalLoop=1;jettySize=auto;html=1;entryX=0.218;entryY=0.982;entryDx=0;entryDy=0;entryPerimeter=0;exitX=0.5;exitY=0;exitDx=0;exitDy=0;" edge="1" parent="1" source="OBeASC8JN5czfZ92_RCb-64" target="q92lbC2dsx9e7F62Pgex-104">
          <mxGeometry relative="1" as="geometry">
            <mxPoint x="-1005" y="-900" as="sourcePoint" />
          </mxGeometry>
        </mxCell>
        <mxCell id="Qn0OpZdaU_wwA8IJ9mMy-18" value="&lt;p style=&quot;margin: 4px 0px 0px; text-align: center; font-size: 13px;&quot;&gt;«enum»&lt;b style=&quot;font-size: 13px;&quot;&gt;&lt;br style=&quot;font-size: 13px;&quot;&gt;&lt;/b&gt;&lt;/p&gt;&lt;p style=&quot;margin: 4px 0px 0px; text-align: center; text-decoration: underline; font-size: 13px;&quot;&gt;&lt;b&gt;eEducationLevel&lt;/b&gt;&lt;br&gt;&lt;/p&gt;&lt;hr style=&quot;font-size: 13px;&quot;&gt;&lt;p style=&quot;margin: 0px 0px 0px 8px; font-size: 13px;&quot;&gt;&lt;span style=&quot;background-color: initial;&quot;&gt;Academic&lt;/span&gt;&lt;/p&gt;&lt;p style=&quot;margin: 0px 0px 0px 8px; font-size: 13px;&quot;&gt;HighSchool&lt;/p&gt;&lt;p style=&quot;margin: 0px 0px 0px 8px; font-size: 13px;&quot;&gt;Course&lt;/p&gt;&lt;p style=&quot;margin: 0px 0px 0px 8px; font-size: 13px;&quot;&gt;&lt;br&gt;&lt;/p&gt;&lt;p style=&quot;margin: 0px 0px 0px 8px; font-size: 13px;&quot;&gt;&lt;br&gt;&lt;/p&gt;" style="verticalAlign=top;align=left;overflow=fill;html=1;whiteSpace=wrap;fontSize=13;" parent="1" vertex="1">
          <mxGeometry x="-1040" y="-670" width="110" height="118" as="geometry" />
        </mxCell>
        <mxCell id="OBeASC8JN5czfZ92_RCb-11" value="&lt;b style=&quot;font-size: 13px;&quot;&gt;Employee Menu&lt;/b&gt;" style="swimlane;fontStyle=0;childLayout=stackLayout;horizontal=1;startSize=26;fillColor=none;horizontalStack=0;resizeParent=1;resizeParentMax=0;resizeLast=0;collapsible=1;marginBottom=0;whiteSpace=wrap;html=1;fontSize=13;" vertex="1" parent="1">
          <mxGeometry x="-560" y="-1960" width="130" height="78" as="geometry" />
        </mxCell>
        <mxCell id="OBeASC8JN5czfZ92_RCb-13" value="+ Add Employee" style="text;strokeColor=none;fillColor=none;align=left;verticalAlign=top;spacingLeft=4;spacingRight=4;overflow=hidden;rotatable=0;points=[[0,0.5],[1,0.5]];portConstraint=eastwest;whiteSpace=wrap;html=1;fontSize=13;" vertex="1" parent="OBeASC8JN5czfZ92_RCb-11">
          <mxGeometry y="26" width="130" height="26" as="geometry" />
        </mxCell>
        <mxCell id="OBeASC8JN5czfZ92_RCb-14" value="+ Print Employees" style="text;strokeColor=none;fillColor=none;align=left;verticalAlign=top;spacingLeft=4;spacingRight=4;overflow=hidden;rotatable=0;points=[[0,0.5],[1,0.5]];portConstraint=eastwest;whiteSpace=wrap;html=1;fontSize=13;" vertex="1" parent="OBeASC8JN5czfZ92_RCb-11">
          <mxGeometry y="52" width="130" height="26" as="geometry" />
        </mxCell>
        <mxCell id="OBeASC8JN5czfZ92_RCb-21" style="edgeStyle=orthogonalEdgeStyle;rounded=0;orthogonalLoop=1;jettySize=auto;html=1;entryX=0;entryY=0.191;entryDx=0;entryDy=0;entryPerimeter=0;endArrow=none;endFill=0;" edge="1" parent="1" source="q92lbC2dsx9e7F62Pgex-144" target="OBeASC8JN5czfZ92_RCb-11">
          <mxGeometry relative="1" as="geometry" />
        </mxCell>
        <mxCell id="OBeASC8JN5czfZ92_RCb-22" value="&lt;b style=&quot;font-size: 13px;&quot;&gt;InitCocaColaFactory&lt;/b&gt;" style="swimlane;fontStyle=0;childLayout=stackLayout;horizontal=1;startSize=26;fillColor=none;horizontalStack=0;resizeParent=1;resizeParentMax=0;resizeLast=0;collapsible=1;marginBottom=0;whiteSpace=wrap;html=1;fontSize=13;" vertex="1" parent="1">
          <mxGeometry x="-560" y="-2080" width="170" height="104" as="geometry" />
        </mxCell>
        <mxCell id="OBeASC8JN5czfZ92_RCb-23" value="+ Binary File" style="text;strokeColor=none;fillColor=none;align=left;verticalAlign=top;spacingLeft=4;spacingRight=4;overflow=hidden;rotatable=0;points=[[0,0.5],[1,0.5]];portConstraint=eastwest;whiteSpace=wrap;html=1;fontSize=13;" vertex="1" parent="OBeASC8JN5czfZ92_RCb-22">
          <mxGeometry y="26" width="170" height="26" as="geometry" />
        </mxCell>
        <mxCell id="OBeASC8JN5czfZ92_RCb-24" value="+ Text File" style="text;strokeColor=none;fillColor=none;align=left;verticalAlign=top;spacingLeft=4;spacingRight=4;overflow=hidden;rotatable=0;points=[[0,0.5],[1,0.5]];portConstraint=eastwest;whiteSpace=wrap;html=1;fontSize=13;" vertex="1" parent="OBeASC8JN5czfZ92_RCb-22">
          <mxGeometry y="52" width="170" height="26" as="geometry" />
        </mxCell>
        <mxCell id="OBeASC8JN5czfZ92_RCb-26" value="+ User" style="text;strokeColor=none;fillColor=none;align=left;verticalAlign=top;spacingLeft=4;spacingRight=4;overflow=hidden;rotatable=0;points=[[0,0.5],[1,0.5]];portConstraint=eastwest;whiteSpace=wrap;html=1;fontSize=13;" vertex="1" parent="OBeASC8JN5czfZ92_RCb-22">
          <mxGeometry y="78" width="170" height="26" as="geometry" />
        </mxCell>
        <mxCell id="OBeASC8JN5czfZ92_RCb-25" style="edgeStyle=orthogonalEdgeStyle;rounded=0;orthogonalLoop=1;jettySize=auto;html=1;entryX=0.003;entryY=0.199;entryDx=0;entryDy=0;entryPerimeter=0;endArrow=none;endFill=0;" edge="1" parent="1" source="q92lbC2dsx9e7F62Pgex-119" target="OBeASC8JN5czfZ92_RCb-22">
          <mxGeometry relative="1" as="geometry" />
        </mxCell>
        <mxCell id="OBeASC8JN5czfZ92_RCb-27" value="&lt;b style=&quot;font-size: 13px;&quot;&gt;Supplier Menu&lt;/b&gt;" style="swimlane;fontStyle=0;childLayout=stackLayout;horizontal=1;startSize=26;fillColor=none;horizontalStack=0;resizeParent=1;resizeParentMax=0;resizeLast=0;collapsible=1;marginBottom=0;whiteSpace=wrap;html=1;fontSize=13;" vertex="1" parent="1">
          <mxGeometry x="-560" y="-1870" width="130" height="78" as="geometry" />
        </mxCell>
        <mxCell id="OBeASC8JN5czfZ92_RCb-28" value="+ Add Supplier" style="text;strokeColor=none;fillColor=none;align=left;verticalAlign=top;spacingLeft=4;spacingRight=4;overflow=hidden;rotatable=0;points=[[0,0.5],[1,0.5]];portConstraint=eastwest;whiteSpace=wrap;html=1;fontSize=13;" vertex="1" parent="OBeASC8JN5czfZ92_RCb-27">
          <mxGeometry y="26" width="130" height="26" as="geometry" />
        </mxCell>
        <mxCell id="OBeASC8JN5czfZ92_RCb-29" value="+ Print Suppliers" style="text;strokeColor=none;fillColor=none;align=left;verticalAlign=top;spacingLeft=4;spacingRight=4;overflow=hidden;rotatable=0;points=[[0,0.5],[1,0.5]];portConstraint=eastwest;whiteSpace=wrap;html=1;fontSize=13;" vertex="1" parent="OBeASC8JN5czfZ92_RCb-27">
          <mxGeometry y="52" width="130" height="26" as="geometry" />
        </mxCell>
        <mxCell id="OBeASC8JN5czfZ92_RCb-30" style="edgeStyle=orthogonalEdgeStyle;rounded=0;orthogonalLoop=1;jettySize=auto;html=1;entryX=-0.002;entryY=0.198;entryDx=0;entryDy=0;entryPerimeter=0;endArrow=none;endFill=0;" edge="1" parent="1" source="q92lbC2dsx9e7F62Pgex-121" target="OBeASC8JN5czfZ92_RCb-27">
          <mxGeometry relative="1" as="geometry" />
        </mxCell>
        <mxCell id="OBeASC8JN5czfZ92_RCb-31" value="&lt;b style=&quot;font-size: 13px;&quot;&gt;Truck Menu&lt;/b&gt;" style="swimlane;fontStyle=0;childLayout=stackLayout;horizontal=1;startSize=26;fillColor=none;horizontalStack=0;resizeParent=1;resizeParentMax=0;resizeLast=0;collapsible=1;marginBottom=0;whiteSpace=wrap;html=1;fontSize=13;" vertex="1" parent="1">
          <mxGeometry x="-1140" y="-2080" width="170" height="130" as="geometry" />
        </mxCell>
        <mxCell id="OBeASC8JN5czfZ92_RCb-32" value="+ Add Truck" style="text;strokeColor=none;fillColor=none;align=left;verticalAlign=top;spacingLeft=4;spacingRight=4;overflow=hidden;rotatable=0;points=[[0,0.5],[1,0.5]];portConstraint=eastwest;whiteSpace=wrap;html=1;fontSize=13;" vertex="1" parent="OBeASC8JN5czfZ92_RCb-31">
          <mxGeometry y="26" width="170" height="26" as="geometry" />
        </mxCell>
        <mxCell id="OBeASC8JN5czfZ92_RCb-33" value="+ Add Pack To Truck" style="text;strokeColor=none;fillColor=none;align=left;verticalAlign=top;spacingLeft=4;spacingRight=4;overflow=hidden;rotatable=0;points=[[0,0.5],[1,0.5]];portConstraint=eastwest;whiteSpace=wrap;html=1;fontSize=13;" vertex="1" parent="OBeASC8JN5czfZ92_RCb-31">
          <mxGeometry y="52" width="170" height="26" as="geometry" />
        </mxCell>
        <mxCell id="OBeASC8JN5czfZ92_RCb-34" value="+ Print Trucks" style="text;strokeColor=none;fillColor=none;align=left;verticalAlign=top;spacingLeft=4;spacingRight=4;overflow=hidden;rotatable=0;points=[[0,0.5],[1,0.5]];portConstraint=eastwest;whiteSpace=wrap;html=1;fontSize=13;" vertex="1" parent="OBeASC8JN5czfZ92_RCb-31">
          <mxGeometry y="78" width="170" height="26" as="geometry" />
        </mxCell>
        <mxCell id="OBeASC8JN5czfZ92_RCb-35" value="+ Print Content In Truck" style="text;strokeColor=none;fillColor=none;align=left;verticalAlign=top;spacingLeft=4;spacingRight=4;overflow=hidden;rotatable=0;points=[[0,0.5],[1,0.5]];portConstraint=eastwest;whiteSpace=wrap;html=1;fontSize=13;" vertex="1" parent="OBeASC8JN5czfZ92_RCb-31">
          <mxGeometry y="104" width="170" height="26" as="geometry" />
        </mxCell>
        <mxCell id="OBeASC8JN5czfZ92_RCb-37" style="edgeStyle=orthogonalEdgeStyle;rounded=0;orthogonalLoop=1;jettySize=auto;html=1;exitX=0;exitY=0.5;exitDx=0;exitDy=0;entryX=0.999;entryY=0.118;entryDx=0;entryDy=0;entryPerimeter=0;endArrow=none;endFill=0;" edge="1" parent="1" source="q92lbC2dsx9e7F62Pgex-120" target="OBeASC8JN5czfZ92_RCb-31">
          <mxGeometry relative="1" as="geometry" />
        </mxCell>
        <mxCell id="OBeASC8JN5czfZ92_RCb-38" value="&lt;b style=&quot;font-size: 13px;&quot;&gt;Tour Menu&lt;/b&gt;" style="swimlane;fontStyle=0;childLayout=stackLayout;horizontal=1;startSize=26;fillColor=none;horizontalStack=0;resizeParent=1;resizeParentMax=0;resizeLast=0;collapsible=1;marginBottom=0;whiteSpace=wrap;html=1;fontSize=13;" vertex="1" parent="1">
          <mxGeometry x="-1140" y="-1940" width="170" height="156" as="geometry" />
        </mxCell>
        <mxCell id="OBeASC8JN5czfZ92_RCb-39" value="+ Add Tour" style="text;strokeColor=none;fillColor=none;align=left;verticalAlign=top;spacingLeft=4;spacingRight=4;overflow=hidden;rotatable=0;points=[[0,0.5],[1,0.5]];portConstraint=eastwest;whiteSpace=wrap;html=1;fontSize=13;" vertex="1" parent="OBeASC8JN5czfZ92_RCb-38">
          <mxGeometry y="26" width="170" height="26" as="geometry" />
        </mxCell>
        <mxCell id="OBeASC8JN5czfZ92_RCb-40" value="+ Start Tour" style="text;strokeColor=none;fillColor=none;align=left;verticalAlign=top;spacingLeft=4;spacingRight=4;overflow=hidden;rotatable=0;points=[[0,0.5],[1,0.5]];portConstraint=eastwest;whiteSpace=wrap;html=1;fontSize=13;" vertex="1" parent="OBeASC8JN5czfZ92_RCb-38">
          <mxGeometry y="52" width="170" height="26" as="geometry" />
        </mxCell>
        <mxCell id="OBeASC8JN5czfZ92_RCb-41" value="+ Print Tours" style="text;strokeColor=none;fillColor=none;align=left;verticalAlign=top;spacingLeft=4;spacingRight=4;overflow=hidden;rotatable=0;points=[[0,0.5],[1,0.5]];portConstraint=eastwest;whiteSpace=wrap;html=1;fontSize=13;" vertex="1" parent="OBeASC8JN5czfZ92_RCb-38">
          <mxGeometry y="78" width="170" height="26" as="geometry" />
        </mxCell>
        <mxCell id="OBeASC8JN5czfZ92_RCb-42" value="+ Sort Tours" style="text;strokeColor=none;fillColor=none;align=left;verticalAlign=top;spacingLeft=4;spacingRight=4;overflow=hidden;rotatable=0;points=[[0,0.5],[1,0.5]];portConstraint=eastwest;whiteSpace=wrap;html=1;fontSize=13;" vertex="1" parent="OBeASC8JN5czfZ92_RCb-38">
          <mxGeometry y="104" width="170" height="26" as="geometry" />
        </mxCell>
        <mxCell id="OBeASC8JN5czfZ92_RCb-43" value="+ Find Tour" style="text;strokeColor=none;fillColor=none;align=left;verticalAlign=top;spacingLeft=4;spacingRight=4;overflow=hidden;rotatable=0;points=[[0,0.5],[1,0.5]];portConstraint=eastwest;whiteSpace=wrap;html=1;fontSize=13;" vertex="1" parent="OBeASC8JN5czfZ92_RCb-38">
          <mxGeometry y="130" width="170" height="26" as="geometry" />
        </mxCell>
        <mxCell id="OBeASC8JN5czfZ92_RCb-44" style="edgeStyle=orthogonalEdgeStyle;rounded=0;orthogonalLoop=1;jettySize=auto;html=1;exitX=0;exitY=0.5;exitDx=0;exitDy=0;entryX=1;entryY=0.103;entryDx=0;entryDy=0;entryPerimeter=0;endArrow=none;endFill=0;" edge="1" parent="1" source="q92lbC2dsx9e7F62Pgex-145" target="OBeASC8JN5czfZ92_RCb-38">
          <mxGeometry relative="1" as="geometry">
            <Array as="points">
              <mxPoint x="-960" y="-1841" />
              <mxPoint x="-960" y="-1924" />
            </Array>
          </mxGeometry>
        </mxCell>
        <mxCell id="OBeASC8JN5czfZ92_RCb-56" value="&lt;p style=&quot;margin: 4px 0px 0px; text-align: center; font-size: 13px;&quot;&gt;«enum»&lt;b style=&quot;font-size: 13px;&quot;&gt;&lt;br style=&quot;font-size: 13px;&quot;&gt;&lt;/b&gt;&lt;/p&gt;&lt;p style=&quot;margin: 4px 0px 0px; text-align: center; text-decoration: underline; font-size: 13px;&quot;&gt;&lt;b&gt;eEmployeeType&lt;/b&gt;&lt;br&gt;&lt;/p&gt;&lt;hr style=&quot;font-size: 13px;&quot;&gt;&lt;p style=&quot;margin: 0px 0px 0px 8px; font-size: 13px;&quot;&gt;&lt;span style=&quot;background-color: initial;&quot;&gt;Driver&lt;/span&gt;&lt;/p&gt;&lt;p style=&quot;margin: 0px 0px 0px 8px; font-size: 13px;&quot;&gt;Guide&lt;/p&gt;&lt;p style=&quot;margin: 0px 0px 0px 8px; font-size: 13px;&quot;&gt;&lt;br&gt;&lt;/p&gt;" style="verticalAlign=top;align=left;overflow=fill;html=1;whiteSpace=wrap;fontSize=13;" vertex="1" parent="1">
          <mxGeometry x="-510" y="-1310" width="110" height="90" as="geometry" />
        </mxCell>
        <mxCell id="OBeASC8JN5czfZ92_RCb-57" style="edgeStyle=orthogonalEdgeStyle;rounded=0;orthogonalLoop=1;jettySize=auto;html=1;exitX=1;exitY=0.5;exitDx=0;exitDy=0;entryX=0.002;entryY=0.17;entryDx=0;entryDy=0;entryPerimeter=0;endArrow=none;endFill=0;" edge="1" parent="1" source="OBeASC8JN5czfZ92_RCb-55" target="OBeASC8JN5czfZ92_RCb-56">
          <mxGeometry relative="1" as="geometry" />
        </mxCell>
        <mxCell id="OBeASC8JN5czfZ92_RCb-64" value="&lt;b style=&quot;border-color: var(--border-color); font-size: 13px;&quot;&gt;EmployeeGuide&lt;br style=&quot;font-size: 13px;&quot;&gt;&lt;/b&gt;" style="swimlane;fontStyle=1;align=center;verticalAlign=top;childLayout=stackLayout;horizontal=1;startSize=26;horizontalStack=0;resizeParent=1;resizeParentMax=0;resizeLast=0;collapsible=1;marginBottom=0;whiteSpace=wrap;html=1;fontSize=13;" vertex="1" parent="1">
          <mxGeometry x="-1140" y="-922" width="320" height="242" as="geometry" />
        </mxCell>
        <mxCell id="OBeASC8JN5czfZ92_RCb-65" value="+ pBaseObj : Employee*" style="text;strokeColor=none;fillColor=none;align=left;verticalAlign=top;spacingLeft=4;spacingRight=4;overflow=hidden;rotatable=0;points=[[0,0.5],[1,0.5]];portConstraint=eastwest;whiteSpace=wrap;html=1;fontSize=13;" vertex="1" parent="OBeASC8JN5czfZ92_RCb-64">
          <mxGeometry y="26" width="320" height="26" as="geometry" />
        </mxCell>
        <mxCell id="OBeASC8JN5czfZ92_RCb-66" value="+ educationLevel: eEducationLevel" style="text;strokeColor=none;fillColor=none;align=left;verticalAlign=top;spacingLeft=4;spacingRight=4;overflow=hidden;rotatable=0;points=[[0,0.5],[1,0.5]];portConstraint=eastwest;whiteSpace=wrap;html=1;fontSize=13;" vertex="1" parent="OBeASC8JN5czfZ92_RCb-64">
          <mxGeometry y="52" width="320" height="26" as="geometry" />
        </mxCell>
        <mxCell id="OBeASC8JN5czfZ92_RCb-67" value="+ tellFact: fptrTellFact" style="text;strokeColor=none;fillColor=none;align=left;verticalAlign=top;spacingLeft=4;spacingRight=4;overflow=hidden;rotatable=0;points=[[0,0.5],[1,0.5]];portConstraint=eastwest;whiteSpace=wrap;html=1;fontSize=13;" vertex="1" parent="OBeASC8JN5czfZ92_RCb-64">
          <mxGeometry y="78" width="320" height="26" as="geometry" />
        </mxCell>
        <mxCell id="OBeASC8JN5czfZ92_RCb-68" value="" style="line;strokeWidth=1;fillColor=none;align=left;verticalAlign=middle;spacingTop=-1;spacingLeft=3;spacingRight=3;rotatable=0;labelPosition=right;points=[];portConstraint=eastwest;strokeColor=inherit;fontSize=13;" vertex="1" parent="OBeASC8JN5czfZ92_RCb-64">
          <mxGeometry y="104" width="320" height="8" as="geometry" />
        </mxCell>
        <mxCell id="OBeASC8JN5czfZ92_RCb-69" value="+ newEmployeeGuide(...,eEducationLevel): void" style="text;strokeColor=none;fillColor=none;align=left;verticalAlign=top;spacingLeft=4;spacingRight=4;overflow=hidden;rotatable=0;points=[[0,0.5],[1,0.5]];portConstraint=eastwest;whiteSpace=wrap;html=1;fontSize=13;" vertex="1" parent="OBeASC8JN5czfZ92_RCb-64">
          <mxGeometry y="112" width="320" height="26" as="geometry" />
        </mxCell>
        <mxCell id="OBeASC8JN5czfZ92_RCb-70" value="+ printEmployeeGuide(Employee* const): void" style="text;strokeColor=none;fillColor=none;align=left;verticalAlign=top;spacingLeft=4;spacingRight=4;overflow=hidden;rotatable=0;points=[[0,0.5],[1,0.5]];portConstraint=eastwest;whiteSpace=wrap;html=1;fontSize=13;" vertex="1" parent="OBeASC8JN5czfZ92_RCb-64">
          <mxGeometry y="138" width="320" height="26" as="geometry" />
        </mxCell>
        <mxCell id="OBeASC8JN5czfZ92_RCb-71" value="+ deleteEmployeeGuide(Employee* const):&amp;nbsp;void" style="text;strokeColor=none;fillColor=none;align=left;verticalAlign=top;spacingLeft=4;spacingRight=4;overflow=hidden;rotatable=0;points=[[0,0.5],[1,0.5]];portConstraint=eastwest;whiteSpace=wrap;html=1;fontSize=13;" vertex="1" parent="OBeASC8JN5czfZ92_RCb-64">
          <mxGeometry y="164" width="320" height="26" as="geometry" />
        </mxCell>
        <mxCell id="OBeASC8JN5czfZ92_RCb-73" value="+ freeEmployeeGuide(Employee* const):&amp;nbsp;void" style="text;strokeColor=none;fillColor=none;align=left;verticalAlign=top;spacingLeft=4;spacingRight=4;overflow=hidden;rotatable=0;points=[[0,0.5],[1,0.5]];portConstraint=eastwest;whiteSpace=wrap;html=1;fontSize=13;" vertex="1" parent="OBeASC8JN5czfZ92_RCb-64">
          <mxGeometry y="190" width="320" height="26" as="geometry" />
        </mxCell>
        <mxCell id="OBeASC8JN5czfZ92_RCb-74" value="+ tellFact(Employee* const,HistoricalEvent*):&amp;nbsp;void" style="text;strokeColor=none;fillColor=none;align=left;verticalAlign=top;spacingLeft=4;spacingRight=4;overflow=hidden;rotatable=0;points=[[0,0.5],[1,0.5]];portConstraint=eastwest;whiteSpace=wrap;html=1;fontSize=13;" vertex="1" parent="OBeASC8JN5czfZ92_RCb-64">
          <mxGeometry y="216" width="320" height="26" as="geometry" />
        </mxCell>
        <mxCell id="OBeASC8JN5czfZ92_RCb-72" style="edgeStyle=orthogonalEdgeStyle;rounded=0;orthogonalLoop=1;jettySize=auto;html=1;exitX=1;exitY=0.5;exitDx=0;exitDy=0;entryX=1;entryY=0.25;entryDx=0;entryDy=0;" edge="1" parent="1" source="OBeASC8JN5czfZ92_RCb-66" target="Qn0OpZdaU_wwA8IJ9mMy-18">
          <mxGeometry relative="1" as="geometry" />
        </mxCell>
        <mxCell id="OBeASC8JN5czfZ92_RCb-75" value="&lt;b style=&quot;border-color: var(--border-color); font-size: 13px;&quot;&gt;EmployeeGuide&lt;br style=&quot;font-size: 13px;&quot;&gt;&lt;/b&gt;" style="swimlane;fontStyle=1;align=center;verticalAlign=top;childLayout=stackLayout;horizontal=1;startSize=26;horizontalStack=0;resizeParent=1;resizeParentMax=0;resizeLast=0;collapsible=1;marginBottom=0;whiteSpace=wrap;html=1;fontSize=13;" vertex="1" parent="1">
          <mxGeometry x="-770" y="-922" width="320" height="190" as="geometry" />
        </mxCell>
        <mxCell id="OBeASC8JN5czfZ92_RCb-76" value="+ pBaseObj : Employee*" style="text;strokeColor=none;fillColor=none;align=left;verticalAlign=top;spacingLeft=4;spacingRight=4;overflow=hidden;rotatable=0;points=[[0,0.5],[1,0.5]];portConstraint=eastwest;whiteSpace=wrap;html=1;fontSize=13;" vertex="1" parent="OBeASC8JN5czfZ92_RCb-75">
          <mxGeometry y="26" width="320" height="26" as="geometry" />
        </mxCell>
        <mxCell id="OBeASC8JN5czfZ92_RCb-77" value="+ licenseType: eLicenseType" style="text;strokeColor=none;fillColor=none;align=left;verticalAlign=top;spacingLeft=4;spacingRight=4;overflow=hidden;rotatable=0;points=[[0,0.5],[1,0.5]];portConstraint=eastwest;whiteSpace=wrap;html=1;fontSize=13;" vertex="1" parent="OBeASC8JN5czfZ92_RCb-75">
          <mxGeometry y="52" width="320" height="26" as="geometry" />
        </mxCell>
        <mxCell id="OBeASC8JN5czfZ92_RCb-79" value="" style="line;strokeWidth=1;fillColor=none;align=left;verticalAlign=middle;spacingTop=-1;spacingLeft=3;spacingRight=3;rotatable=0;labelPosition=right;points=[];portConstraint=eastwest;strokeColor=inherit;fontSize=13;" vertex="1" parent="OBeASC8JN5czfZ92_RCb-75">
          <mxGeometry y="78" width="320" height="8" as="geometry" />
        </mxCell>
        <mxCell id="OBeASC8JN5czfZ92_RCb-80" value="+ newEmployeeDriver(...,eLicenseType): void" style="text;strokeColor=none;fillColor=none;align=left;verticalAlign=top;spacingLeft=4;spacingRight=4;overflow=hidden;rotatable=0;points=[[0,0.5],[1,0.5]];portConstraint=eastwest;whiteSpace=wrap;html=1;fontSize=13;" vertex="1" parent="OBeASC8JN5czfZ92_RCb-75">
          <mxGeometry y="86" width="320" height="26" as="geometry" />
        </mxCell>
        <mxCell id="OBeASC8JN5czfZ92_RCb-81" value="+ printEmployeeDriver(Employee* const): void" style="text;strokeColor=none;fillColor=none;align=left;verticalAlign=top;spacingLeft=4;spacingRight=4;overflow=hidden;rotatable=0;points=[[0,0.5],[1,0.5]];portConstraint=eastwest;whiteSpace=wrap;html=1;fontSize=13;" vertex="1" parent="OBeASC8JN5czfZ92_RCb-75">
          <mxGeometry y="112" width="320" height="26" as="geometry" />
        </mxCell>
        <mxCell id="OBeASC8JN5czfZ92_RCb-82" value="+ deleteEmployeeDriver(Employee* const):&amp;nbsp;void" style="text;strokeColor=none;fillColor=none;align=left;verticalAlign=top;spacingLeft=4;spacingRight=4;overflow=hidden;rotatable=0;points=[[0,0.5],[1,0.5]];portConstraint=eastwest;whiteSpace=wrap;html=1;fontSize=13;" vertex="1" parent="OBeASC8JN5czfZ92_RCb-75">
          <mxGeometry y="138" width="320" height="26" as="geometry" />
        </mxCell>
        <mxCell id="OBeASC8JN5czfZ92_RCb-83" value="+ freeEmployeeDriver(Employee* const):&amp;nbsp;void" style="text;strokeColor=none;fillColor=none;align=left;verticalAlign=top;spacingLeft=4;spacingRight=4;overflow=hidden;rotatable=0;points=[[0,0.5],[1,0.5]];portConstraint=eastwest;whiteSpace=wrap;html=1;fontSize=13;" vertex="1" parent="OBeASC8JN5czfZ92_RCb-75">
          <mxGeometry y="164" width="320" height="26" as="geometry" />
        </mxCell>
        <mxCell id="OBeASC8JN5czfZ92_RCb-85" value="&lt;p style=&quot;margin: 4px 0px 0px; text-align: center; font-size: 13px;&quot;&gt;«enum»&lt;b style=&quot;font-size: 13px;&quot;&gt;&lt;br style=&quot;font-size: 13px;&quot;&gt;&lt;/b&gt;&lt;/p&gt;&lt;p style=&quot;margin: 4px 0px 0px; text-align: center; text-decoration: underline; font-size: 13px;&quot;&gt;&lt;b&gt;eLicenseType&lt;/b&gt;&lt;br&gt;&lt;/p&gt;&lt;hr style=&quot;font-size: 13px;&quot;&gt;&lt;p style=&quot;margin: 0px 0px 0px 8px; font-size: 13px;&quot;&gt;B&lt;/p&gt;&lt;p style=&quot;margin: 0px 0px 0px 8px; font-size: 13px;&quot;&gt;C1&lt;/p&gt;&lt;p style=&quot;margin: 0px 0px 0px 8px; font-size: 13px;&quot;&gt;C&lt;/p&gt;&lt;p style=&quot;margin: 0px 0px 0px 8px; font-size: 13px;&quot;&gt;E&lt;/p&gt;&lt;p style=&quot;margin: 0px 0px 0px 8px; font-size: 13px;&quot;&gt;&lt;br&gt;&lt;/p&gt;&lt;p style=&quot;margin: 0px 0px 0px 8px; font-size: 13px;&quot;&gt;&lt;br&gt;&lt;/p&gt;" style="verticalAlign=top;align=left;overflow=fill;html=1;whiteSpace=wrap;fontSize=13;" vertex="1" parent="1">
          <mxGeometry x="-665" y="-680" width="110" height="118" as="geometry" />
        </mxCell>
        <mxCell id="OBeASC8JN5czfZ92_RCb-86" style="edgeStyle=orthogonalEdgeStyle;rounded=0;orthogonalLoop=1;jettySize=auto;html=1;entryX=1.006;entryY=0.199;entryDx=0;entryDy=0;entryPerimeter=0;endArrow=none;endFill=0;" edge="1" parent="1" source="OBeASC8JN5czfZ92_RCb-77" target="OBeASC8JN5czfZ92_RCb-85">
          <mxGeometry relative="1" as="geometry">
            <Array as="points">
              <mxPoint x="-430" y="-857" />
              <mxPoint x="-430" y="-656" />
            </Array>
          </mxGeometry>
        </mxCell>
      </root>
    </mxGraphModel>
  </diagram>
</mxfile>
